<?xml version="1.0" standalone="no"?><!DOCTYPE svg PUBLIC "-//W3C//DTD SVG 1.1//EN" "http://www.w3.org/Graphics/SVG/1.1/DTD/svg11.dtd"><svg class="icon" width="64px" height="64.00px" viewBox="0 0 1024 1024" version="1.1" xmlns="http://www.w3.org/2000/svg"><path fill="#78BBE6" d="M1008 335.2 1008 335.2l-160 144 0 0c-8.8 8-20 12.8-32 12.8-26.4 0-48-21.6-48-48 0-14.4 6.4-26.4 16-35.2l0 0 67.2-60L560 348.8c0 0 0 0 0 0L464 348.8l0 0L352 348.8 48 348.8c-26.4 0-48-21.6-48-48 0-26.4 21.6-48 48-48l124.8 0 0 0L416 252.8l0 0 208 0 0 0 227.2 0L784 192l0 0c-9.6-8.8-16-21.6-16-35.2 0-26.4 21.6-48 48-48 12 0 23.2 4.8 32 12.8l0 0 160 144 0 0c9.6 8.8 16 21.6 16 35.2C1024 314.4 1017.6 326.4 1008 335.2zM16 680.8 16 680.8l160-144 0 0c8.8-8 20-12.8 32-12.8 26.4 0 48 21.6 48 48 0 14.4-6.4 26.4-16 35.2l0 0-67.2 60L400 667.2l0 0 208 0 0 0 243.2 0 0 0L976 667.2c26.4 0 48 21.6 48 48 0 26.4-21.6 48-48 48L672 763.2 560 763.2c0 0 0 0 0 0L464 763.2l0 0L172.8 763.2 240 824l0 0c9.6 8.8 16 21.6 16 35.2 0 26.4-21.6 48-48 48-12 0-23.2-4.8-32-12.8l0 0L16 752l0 0c-9.6-8.8-16-21.6-16-35.2C0 701.6 6.4 689.6 16 680.8z" /></svg>