<?xml version="1.0" standalone="no"?><!DOCTYPE svg PUBLIC "-//W3C//DTD SVG 1.1//EN" "http://www.w3.org/Graphics/SVG/1.1/DTD/svg11.dtd"><svg class="icon" width="200px" height="200.00px" viewBox="0 0 1024 1024" version="1.1" xmlns="http://www.w3.org/2000/svg"><path fill="#1296db" d="M734.919647 943.44652H159.645681c-47.583643 0-86.292169-38.705456-86.292169-86.289099V270.013127l189.434064-189.460671h472.132071c47.583643 0 86.291146 38.707503 86.291146 86.2891v28.763033h-57.52709v-28.763033c0-15.870424-12.921262-28.734381-28.764056-28.734381H286.608051L130.880601 293.803925v563.353496c0 15.899077 12.893632 28.790662 28.76508 28.790662h575.273966c15.842795 0 28.764056-12.891586 28.764056-28.790662V569.525043h57.52709v287.632378c0 47.583643-38.707503 86.289099-86.291146 86.289099zM404.130439 742.104265c-0.055258-11.851909 0.728593-291.815645 169.279067-423.440189 89.098069-69.577519 206.792373-83.790191 349.874853-42.414933l27.361106 7.921397-7.69627 28.088676c-31.909693 116.176744-118.480201 157.157005-174.995244 165.472375-6.797809 22.161698-21.404453 54.688444-52.189535 75.784882-26.234449 17.975361-57.974273 24.015925-94.940113 18.1176-10.956518 23.060159-27.021369 40.420514-48.03185 51.710629-38.651221 20.730096-81.276956 13.820746-100.74327 8.847487-10.9821 62.050094-11.092617 108.592013-11.092617 109.686949l-56.826127 0.225127z m80.392821-166.902954c10.700692 2.780317 39.673502 8.53845 62.144238-3.709477 13.878051-7.582684 23.371244-21.177279 28.987137-41.655643l7.697294-28.061046 27.357013 7.892745c31.068537 9.01531 55.841708 7.444538 73.536683-4.690826 27.358037-18.762282 32.584051-57.835104 32.641356-58.200424l2.975768-26.037974 25.562138 0.308014c3.931535 0 92.297941-1.235128 132.972235-96.402414-111.400983-26.29073-202.410585-12.807675-270.609713 40.448143-67.016189 52.331774-103.477539 135.335044-123.264149 210.108902zM332.222856 339.419755H102.118591v-57.497414H274.695767V109.344142h57.527089z" /></svg>