<?xml version="1.0" standalone="no"?><!DOCTYPE svg PUBLIC "-//W3C//DTD SVG 1.1//EN" "http://www.w3.org/Graphics/SVG/1.1/DTD/svg11.dtd"><svg class="icon" width="200px" height="200.00px" viewBox="0 0 1024 1024" version="1.1" xmlns="http://www.w3.org/2000/svg"><path fill="#1296db" d="M852.144032 937.162236 285.2368 937.162236c-62.614579 0-113.380832-50.764174-113.380832-113.37721L171.855968 710.408839l56.690416 0 0 113.376187c0 31.306007 25.38415 56.688093 56.690416 56.688093l566.907232 0c31.307289 0 56.690416-25.38311 56.690416-56.688093l0-623.572098c0-31.306007-25.38415-56.688093-56.690416-56.688093L285.2368 143.524834c-31.307289 0-56.690416 25.382087-56.690416 56.688093l0 113.376187-56.690416 0L171.855968 200.212928c0-62.612013 50.766254-113.37721 113.380832-113.37721l566.907232 0c62.615602 0 113.381856 50.765197 113.381856 113.37721l0 623.572098C965.525888 886.398062 914.759634 937.162236 852.144032 937.162236zM606.752315 335.069335c-11.044996-11.072173-11.044996-29.036313 0-40.079834 11.071603-11.072173 29.03648-11.072173 40.109106 0l195.565921 195.557908c5.896532 5.89629 8.414992 13.729699 8.028166 21.451568 0.386826 7.721869-2.131634 15.556301-8.028166 21.48022L646.862445 729.038128c-11.072627 11.07115-29.037503 11.07115-40.109106 0-11.044996-11.072173-11.044996-29.036313 0-40.080857l148.619825-148.613736L86.818808 540.343535c-15.639829 0-28.34572-12.67774-28.34572-28.344558 0-15.639189 12.70589-28.344558 28.34572-28.344558l668.552308 0L606.752315 335.069335z" /></svg>