<?xml version="1.0" standalone="no"?><!DOCTYPE svg PUBLIC "-//W3C//DTD SVG 1.1//EN" "http://www.w3.org/Graphics/SVG/1.1/DTD/svg11.dtd"><svg class="icon" width="200px" height="200.00px" viewBox="0 0 1024 1024" version="1.1" xmlns="http://www.w3.org/2000/svg"><path fill="#1296db" d="M513 957.8c-60.2 0-118.6-11.8-173.6-35.1-53.1-22.5-100.8-54.6-141.8-95.6-41-41-73.1-88.6-95.6-141.8C78.8 630.4 67 572 67 511.8c0-114.7 43.4-223.6 122.3-306.8 9.5-10 25.3-10.4 35.3-0.9 10 9.5 10.4 25.3 0.9 35.3C155.6 313.3 117 410 117 511.8c0 218.4 177.6 396 396 396s396-177.6 396-396-177.6-396-396-396c-60.3 0-118.2 13.2-172.1 39.2-12.4 6-27.4 0.8-33.4-11.6s-0.8-27.4 11.6-33.4c60.8-29.3 126-44.2 193.9-44.2 60.2 0 118.6 11.8 173.6 35.1 53.1 22.5 100.8 54.6 141.8 95.6 41 41 73.1 88.6 95.6 141.8 23.3 55 35.1 113.4 35.1 173.6 0 60.2-11.8 118.6-35.1 173.6-22.5 53.1-54.6 100.8-95.6 141.8-41 41-88.6 73.1-141.8 95.6-55 23.1-113.4 34.9-173.6 34.9zM513 511.3c-6.4 0-12.8-2.4-17.7-7.3L353.1 361.8c-9.8-9.8-9.8-25.6 0-35.4 9.8-9.8 25.6-9.8 35.4 0L513 451l124.5-124.5c9.8-9.8 25.6-9.8 35.4 0 9.8 9.8 9.8 25.6 0 35.4L530.7 504c-4.9 4.9-11.3 7.3-17.7 7.3zM634.3 511.3H391.7c-13.8 0-25-11.2-25-25s11.2-25 25-25h242.6c13.8 0 25 11.2 25 25s-11.2 25-25 25zM634.3 627.4H391.7c-13.8 0-25-11.2-25-25s11.2-25 25-25h242.6c13.8 0 25 11.2 25 25s-11.2 25-25 25zM513 761.1c-13.8 0-25-11.2-25-25V486.3c0-13.8 11.2-25 25-25s25 11.2 25 25v249.8c0 13.8-11.2 25-25 25z" /></svg>