<?xml version="1.0" encoding="iso-8859-1"?>
<!-- Generator: Adobe Illustrator 19.0.0, SVG Export Plug-In . SVG Version: 6.00 Build 0)  -->
<svg version="1.1" id="Layer_1" xmlns="http://www.w3.org/2000/svg" xmlns:xlink="http://www.w3.org/1999/xlink" x="0px" y="0px"
	 viewBox="0 0 503.467 503.467" style="enable-background:new 0 0 503.467 503.467;" xml:space="preserve">
<g transform="translate(1 17)">
	<path style="fill:#7EE1E6;" d="M3.267,277.4h102.4c-28.16,0-51.2,23.04-51.2,51.2H20.333c-9.387,0-17.067-7.68-17.067-17.067V277.4
		z M498.2,277.4v34.133c0,9.387-7.68,17.067-17.067,17.067H447c0-28.16-23.04-51.2-51.2-51.2H498.2z M105.667,277.4H395.8
		c-28.16,0-51.2,23.04-51.2,51.2H156.867C156.867,300.44,133.827,277.4,105.667,277.4z"/>
	<path style="fill:#E4F2DE;" d="M54.467,209.133H395.8V89.667H54.467V209.133z M447,209.133h-51.2V89.667V55.533H447
		c29.013,0,51.2,22.187,51.2,51.2v102.4H447z"/>
	<path style="fill:#AAB1BA;" d="M105.667,277.4c28.16,0,51.2,23.04,51.2,51.2c0,28.16-23.04,51.2-51.2,51.2s-51.2-23.04-51.2-51.2
		C54.467,300.44,77.507,277.4,105.667,277.4z M395.8,277.4c28.16,0,51.2,23.04,51.2,51.2c0,28.16-23.04,51.2-51.2,51.2
		s-51.2-23.04-51.2-51.2C344.6,300.44,367.64,277.4,395.8,277.4z"/>
	<path style="fill:#E4F2DE;" d="M395.8,311.533c9.387,0,17.067,7.68,17.067,17.067s-7.68,17.067-17.067,17.067
		s-17.067-7.68-17.067-17.067S386.413,311.533,395.8,311.533z M105.667,311.533c9.387,0,17.067,7.68,17.067,17.067
		s-7.68,17.067-17.067,17.067S88.6,337.987,88.6,328.6S96.28,311.533,105.667,311.533z"/>
	<path style="fill:#C49AE9;" d="M395.8,209.133V277.4H105.667H3.267v-68.267h51.2H139.8h85.333h85.333H395.8L395.8,209.133
		L395.8,209.133z M3.267,89.667h51.2v119.467h-51.2V89.667L3.267,89.667L3.267,89.667z M498.2,209.133V277.4H395.8v-68.267H447
		H498.2L498.2,209.133L498.2,209.133z M395.8,55.533v34.133h-85.333h-85.333H139.8H54.467h-51.2V72.6
		c0-9.387,7.68-17.067,17.067-17.067H395.8L395.8,55.533L395.8,55.533z"/>
</g>
<path style="fill:#51565F;" d="M499.2,435.2H362.667c-2.56,0-4.267-1.707-4.267-4.267c0-2.56,1.707-4.267,4.267-4.267H499.2
	c2.56,0,4.267,1.707,4.267,4.267C503.467,433.493,501.76,435.2,499.2,435.2z M328.533,435.2h-17.067
	c-2.56,0-4.267-1.707-4.267-4.267c0-2.56,1.707-4.267,4.267-4.267h17.067c2.56,0,4.267,1.707,4.267,4.267
	C332.8,433.493,331.093,435.2,328.533,435.2z M260.267,435.2h-85.333c-2.56,0-4.267-1.707-4.267-4.267
	c0-2.56,1.707-4.267,4.267-4.267h85.333c2.56,0,4.267,1.707,4.267,4.267C264.533,433.493,262.827,435.2,260.267,435.2z
	 M123.733,435.2H4.267c-2.56,0-4.267-1.707-4.267-4.267c0-2.56,1.707-4.267,4.267-4.267h119.467c2.56,0,4.267,1.707,4.267,4.267
	C128,433.493,126.293,435.2,123.733,435.2z M396.8,401.067c-30.72,0-55.467-24.747-55.467-55.467s24.747-55.467,55.467-55.467
	c29.013,0,52.907,22.187,55.467,51.2h29.867c6.827,0,12.8-5.973,12.8-12.8v-29.867h-12.8c-2.56,0-4.267-1.707-4.267-4.267
	c0-2.56,1.707-4.267,4.267-4.267h12.8V230.4H448l0,0h-46.933v38.4c0,2.56-1.707,4.267-4.267,4.267s-4.267-1.707-4.267-4.267v-38.4
	H38.4c-2.56,0-4.267-1.707-4.267-4.267s1.707-4.267,4.267-4.267h12.8V110.933H38.4c-2.56,0-4.267-1.707-4.267-4.267
	S35.84,102.4,38.4,102.4h354.133V76.8h-371.2c-6.827,0-12.8,5.973-12.8,12.8v200.533h12.8c2.56,0,4.267,1.707,4.267,4.267
	c0,2.56-1.707,4.267-4.267,4.267h-12.8v29.867c0,6.827,5.973,12.8,12.8,12.8c2.56,0,4.267,1.707,4.267,4.267
	c0,2.56-1.707,4.267-4.267,4.267C9.387,349.867,0,340.48,0,328.533V89.6c0-11.947,9.387-21.333,21.333-21.333H448
	c30.72,0,55.467,24.747,55.467,55.467v204.8c0,11.947-9.387,21.333-21.333,21.333h-29.867
	C449.707,378.88,425.813,401.067,396.8,401.067z M396.8,298.667c-25.6,0-46.933,21.333-46.933,46.933
	c0,25.6,21.333,46.933,46.933,46.933s46.933-21.333,46.933-46.933C443.733,320,422.4,298.667,396.8,298.667z M454.827,221.867
	h40.107v-98.133c0-26.453-20.48-46.933-46.933-46.933h-46.933v145.067h44.373l16.213-31.573c0.853-1.707,3.413-2.56,5.973-1.707
	c1.707,0.853,2.56,2.56,2.56,3.413c0,0.853,0,1.707-0.853,1.707L454.827,221.867z M315.733,221.867h76.8V110.933h-76.8V221.867z
	 M230.4,221.867h76.8V110.933h-76.8V221.867z M145.067,221.867h76.8V110.933h-76.8V221.867z M59.733,221.867h76.8V110.933h-76.8
	V221.867z M106.667,401.067c-30.72,0-55.467-24.747-55.467-55.467s24.747-55.467,55.467-55.467c29.013,0,52.907,22.187,55.467,51.2
	h149.333c2.56,0,4.267,1.707,4.267,4.267c0,2.56-1.707,4.267-4.267,4.267H162.133C159.573,378.88,135.68,401.067,106.667,401.067z
	 M106.667,298.667c-25.6,0-46.933,21.333-46.933,46.933c0,25.6,21.333,46.933,46.933,46.933S153.6,371.2,153.6,345.6
	C153.6,320,132.267,298.667,106.667,298.667z M396.8,366.933c-11.947,0-21.333-9.387-21.333-21.333
	c0-11.947,9.387-21.333,21.333-21.333s21.333,9.387,21.333,21.333C418.133,357.547,408.747,366.933,396.8,366.933z M396.8,332.8
	c-6.827,0-12.8,5.973-12.8,12.8c0,6.827,5.973,12.8,12.8,12.8s12.8-5.973,12.8-12.8C409.6,338.773,403.627,332.8,396.8,332.8z
	 M106.667,366.933c-11.947,0-21.333-9.387-21.333-21.333c0-11.947,9.387-21.333,21.333-21.333S128,333.653,128,345.6
	C128,357.547,118.613,366.933,106.667,366.933z M106.667,332.8c-6.827,0-12.8,5.973-12.8,12.8c0,6.827,5.973,12.8,12.8,12.8
	s12.8-5.973,12.8-12.8C119.467,338.773,113.493,332.8,106.667,332.8z M328.533,298.667h-153.6c-2.56,0-4.267-1.707-4.267-4.267
	c0-2.56,1.707-4.267,4.267-4.267h153.6c2.56,0,4.267,1.707,4.267,4.267C332.8,296.96,331.093,298.667,328.533,298.667z"/>
<g>
</g>
<g>
</g>
<g>
</g>
<g>
</g>
<g>
</g>
<g>
</g>
<g>
</g>
<g>
</g>
<g>
</g>
<g>
</g>
<g>
</g>
<g>
</g>
<g>
</g>
<g>
</g>
<g>
</g>
</svg>
