<?xml version="1.0" encoding="iso-8859-1"?>
<!-- Generator: Adobe Illustrator 19.0.0, SVG Export Plug-In . SVG Version: 6.00 Build 0)  -->
<svg version="1.1" id="Layer_1" xmlns="http://www.w3.org/2000/svg" xmlns:xlink="http://www.w3.org/1999/xlink" x="0px" y="0px"
	 viewBox="0 0 512 512" style="enable-background:new 0 0 512 512;" xml:space="preserve">
<g transform="translate(1 3)">
	<path style="fill:#F2EDDA;" d="M444.403,270.086c57.225-57.225,57.225-150.866,0-208.09c-57.225-58.135-150.866-58.135-208.09,0
		L126.155,172.154l1.105,1.105l-1.105-0.325c-25.101-12.095-71.921-6.113-89.284,11.25l-34.66,34.725l173.43,173.56
		c3.446,2.666,6.113,5.202,8.649,8.649l104.045,104.045l34.66-34.66c17.363-17.363,23.345-65.028,11.25-89.284l0.39-1.236
		L444.403,270.086z"/>
	<path style="fill:#FFD0A1;" d="M186.306,400.598c5.202,6.893,8.649,16.452,8.649,26.011c0,24.256-19.118,43.374-43.374,43.374
		s-43.374-19.118-43.374-43.374s19.118-43.374,43.374-43.374c9.559,0,19.118,3.446,26.011,8.649L186.306,400.598z"/>
</g>
<path style="fill:#80D6FA;" d="M335.245,384.154c12.095,24.256,6.113,71.921-11.25,89.284l-34.66,34.66L185.29,404.053
	c-2.666-3.447-5.202-6.113-8.649-8.649L3.211,222.039l34.595-34.66c17.363-17.363,64.118-23.345,89.284-11.25L335.245,384.154
	L335.245,384.154z"/>
<g>
	<path style="fill:#51565F;" d="M341.618,17.655c-40.773,0-78.944,15.672-107.492,44.219l-85.837,85.837
		c-1.756,1.756-1.756,4.357,0,6.113c1.756,1.756,4.357,1.756,6.113,0l85.837-85.837c26.922-26.922,63.273-41.683,101.379-41.683
		s74.587,14.761,101.444,41.683c55.469,55.469,55.469,146.509,0,201.978L332.904,380.123c-1.756,1.756-1.756,3.447-0.91,5.202
		c11.25,23.345,6.113,67.694-10.339,84.147l-31.214,31.214L10.364,220.608l31.214-31.214c16.452-15.672,59.826-21.654,83.236-10.339
		L308.649,362.89c1.756,1.756,4.357,1.756,6.113,0c1.756-1.756,1.756-4.357,0-6.113L130.926,172.943l-0.91-0.91
		c-26.011-13.006-74.587-6.893-93.706,12.095L1.78,218.853c-1.756,1.756-1.756,4.357,0,6.113L287.905,511.09
		c0.91,0.91,2.666,0.91,3.447,0.91s2.666,0,1.756-1.756l34.66-34.66c17.363-18.208,24.256-64.118,13.006-91.04L449.11,276.143
		c58.916-58.916,58.916-155.157,0-214.203C420.497,33.327,382.391,17.655,341.618,17.655z"/>
	<path style="fill:#51565F;" d="M184.64,450.288c-6.893,11.25-19.118,17.363-32.124,17.363c-21.654,0-39.017-17.363-39.017-39.017
		c0-13.006,6.893-25.101,17.363-32.124c1.756-1.756,2.666-4.357,0.91-6.113c-1.756-1.756-4.357-2.666-6.113-0.91
		c-13.006,9.559-20.809,24.256-20.809,39.927c0,26.011,21.654,47.666,47.666,47.666c15.672,0,30.368-7.803,39.017-21.654
		c1.756-1.756,0.91-4.357-0.91-6.113C188.997,447.752,186.395,448.597,184.64,450.288z"/>
	<path style="fill:#51565F;" d="M502.888,9.071c-11.25-12.095-30.368-12.095-42.463,0l-11.315,11.25
		c-1.756,1.756-1.756,4.357,0,6.113s4.357,1.756,6.113,0l11.25-11.25c7.803-8.649,21.654-8.649,30.368,0
		c3.447,4.357,6.113,9.559,6.113,15.672s-1.756,11.25-6.113,15.672l-11.25,11.25c-1.756,1.756-1.756,4.357,0,6.113
		c0.91,0.91,2.471,1.301,3.381,1.301c0.91,0,1.821-0.39,2.731-1.301l11.185-11.38c5.202-6.113,8.649-13.006,8.649-21.654
		S509.001,15.119,502.888,9.071z"/>
	<path style="fill:#51565F;" d="M305.462,87.3c1.496-0.845,35.896-20.809,74.913,0.13c0.715,0.325,1.431,0.52,2.146,0.52
		c1.626,0,3.251-0.845,3.837-2.471c1.236-2.211,0.39-5.007-1.821-6.178c-43.699-23.345-82.196-0.91-83.821,0.13
		c-2.146,1.301-2.861,4.162-1.496,6.308C300.455,87.886,303.316,88.601,305.462,87.3z"/>
</g>
<g>
</g>
<g>
</g>
<g>
</g>
<g>
</g>
<g>
</g>
<g>
</g>
<g>
</g>
<g>
</g>
<g>
</g>
<g>
</g>
<g>
</g>
<g>
</g>
<g>
</g>
<g>
</g>
<g>
</g>
</svg>
