<?xml version="1.0" encoding="iso-8859-1"?>
<!-- Generator: Adobe Illustrator 19.0.0, SVG Export Plug-In . SVG Version: 6.00 Build 0)  -->
<svg version="1.1" id="Layer_1" xmlns="http://www.w3.org/2000/svg" xmlns:xlink="http://www.w3.org/1999/xlink" x="0px" y="0px"
	 viewBox="0 0 503.467 503.467" style="enable-background:new 0 0 503.467 503.467;" xml:space="preserve">
<g transform="translate(1 1)">
	<path style="fill:#F2EDDA;" d="M498.2,173.933v290.133c0,18.773-15.36,34.133-34.133,34.133H37.4
		c-18.773,0-34.133-15.36-34.133-34.133V173.933c0-18.773,15.36-34.133,34.133-34.133h170.667v34.133h-51.2
		c-9.387,0-17.067,7.68-17.067,17.067s7.68,17.067,17.067,17.067H344.6c9.387,0,17.067-7.68,17.067-17.067
		s-7.68-17.067-17.067-17.067h-51.2V139.8h170.667C482.84,139.8,498.2,155.16,498.2,173.933"/>
	<path style="fill:#AAB1BA;" d="M259.267,45.933c0-4.267-3.413-8.533-8.533-8.533c-5.12,0-8.533,4.267-8.533,8.533
		s3.413,8.533,8.533,8.533C255.853,54.467,259.267,50.2,259.267,45.933L259.267,45.933z M293.4,139.8v34.133h-85.333V139.8V3.267
		H293.4V139.8z"/>
	<path style="fill:#FFD0A1;" d="M208.067,336.067v17.067c0,4.267-3.413,8.533-8.533,8.533c0,17.067-8.533,34.133-8.533,34.133
		c-8.533,17.067-17.92,34.133-51.2,34.133S97.133,412.867,88.6,395.8c0,0-8.533-17.067-8.533-34.133
		c-4.267,0-8.533-4.267-8.533-8.533v-17.067c0-4.267,4.267-8.533,8.533-8.533V319c0-23.893,18.773-42.667,42.667-42.667h34.133
		c23.893,0,42.667,18.773,42.667,42.667v8.533C204.653,327.533,208.067,331.8,208.067,336.067"/>
</g>
<path style="fill:#51565F;" d="M465.067,503.467H38.4c-21.333,0-38.4-17.067-38.4-38.4V174.933c0-21.333,17.067-38.4,38.4-38.4h128
	c2.56,0,4.267,1.707,4.267,4.267c0,2.56-1.707,4.267-4.267,4.267h-128c-16.213,0-29.867,13.653-29.867,29.867v290.133
	c0,16.213,13.653,29.867,29.867,29.867h426.667c16.213,0,29.867-13.653,29.867-29.867V174.933c0-16.213-13.653-29.867-29.867-29.867
	H320c-2.56,0-4.267-1.707-4.267-4.267c0-2.56,1.707-4.267,4.267-4.267h145.067c21.333,0,38.4,17.067,38.4,38.4v290.133
	C503.467,486.4,486.4,503.467,465.067,503.467z M140.8,435.2c-36.693,0-46.933-21.333-54.613-36.693
	c0-0.853-7.68-16.213-8.533-32.427c-5.12-1.707-8.533-6.827-8.533-11.947v-17.067c0-5.973,3.413-10.24,8.533-11.947V320
	c0-25.6,21.333-46.933,46.933-46.933h34.133c25.6,0,46.933,21.333,46.933,46.933v5.12c5.12,1.707,8.533,6.827,8.533,11.947v17.067
	c0,5.973-3.413,10.24-8.533,11.947c-0.853,16.213-8.533,31.573-8.533,32.427C187.733,413.867,177.493,435.2,140.8,435.2z
	 M123.733,281.6c-21.333,0-38.4,17.067-38.4,38.4v8.533c0,2.56-1.707,4.267-4.267,4.267c-2.56,0-4.267,1.707-4.267,4.267v17.067
	c0,2.56,1.707,4.267,4.267,4.267c2.56,0,4.267,1.707,4.267,4.267c0,16.213,7.68,32.427,7.68,32.427
	c9.387,18.773,17.92,31.573,47.787,31.573s38.4-12.8,47.787-31.573c0,0,7.68-16.213,7.68-32.427c0-2.56,1.707-4.267,4.267-4.267
	s4.267-1.707,4.267-4.267v-17.067c0-2.56-1.707-4.267-4.267-4.267s-4.267-1.707-4.267-4.267V320c0-21.333-17.067-38.4-38.4-38.4
	H123.733z M413.867,418.133h-85.333c-2.56,0-4.267-1.707-4.267-4.267c0-2.56,1.707-4.267,4.267-4.267h85.333
	c2.56,0,4.267,1.707,4.267,4.267C418.133,416.427,416.427,418.133,413.867,418.133z M294.4,418.133h-34.133
	c-2.56,0-4.267-1.707-4.267-4.267c0-2.56,1.707-4.267,4.267-4.267H294.4c2.56,0,4.267,1.707,4.267,4.267
	C298.667,416.427,296.96,418.133,294.4,418.133z M430.933,366.933h-51.2c-2.56,0-4.267-1.707-4.267-4.267s1.707-4.267,4.267-4.267
	h51.2c2.56,0,4.267,1.707,4.267,4.267S433.493,366.933,430.933,366.933z M345.6,366.933h-85.333c-2.56,0-4.267-1.707-4.267-4.267
	s1.707-4.267,4.267-4.267H345.6c2.56,0,4.267,1.707,4.267,4.267S348.16,366.933,345.6,366.933z M166.4,349.867h-8.533
	c-2.56,0-4.267-1.707-4.267-4.267c0-2.56,1.707-4.267,4.267-4.267h8.533c2.56,0,4.267,1.707,4.267,4.267
	C170.667,348.16,168.96,349.867,166.4,349.867z M123.733,349.867H115.2c-2.56,0-4.267-1.707-4.267-4.267
	c0-2.56,1.707-4.267,4.267-4.267h8.533c2.56,0,4.267,1.707,4.267,4.267C128,348.16,126.293,349.867,123.733,349.867z
	 M379.733,298.667H260.267c-2.56,0-4.267-1.707-4.267-4.267c0-2.56,1.707-4.267,4.267-4.267h119.467c2.56,0,4.267,1.707,4.267,4.267
	C384,296.96,382.293,298.667,379.733,298.667z M345.6,213.333H157.867c-11.947,0-21.333-9.387-21.333-21.333
	c0-11.947,9.387-21.333,21.333-21.333h17.067c2.56,0,4.267,1.707,4.267,4.267c0,2.56-1.707,4.267-4.267,4.267h-17.067
	c-6.827,0-12.8,5.973-12.8,12.8c0,6.827,5.973,12.8,12.8,12.8H345.6c6.827,0,12.8-5.973,12.8-12.8c0-6.827-5.973-12.8-12.8-12.8
	h-17.067c-2.56,0-4.267-1.707-4.267-4.267c0-2.56,1.707-4.267,4.267-4.267H345.6c11.947,0,21.333,9.387,21.333,21.333
	C366.933,203.947,357.547,213.333,345.6,213.333z M294.4,179.2h-85.333c-2.56,0-4.267-1.707-4.267-4.267V4.267
	c0-2.56,1.707-4.267,4.267-4.267H294.4c2.56,0,4.267,1.707,4.267,4.267v170.667C298.667,177.493,296.96,179.2,294.4,179.2z
	 M213.333,170.667h76.8V8.533h-76.8V170.667z M251.733,59.733c-6.827,0-12.8-5.973-12.8-12.8s5.973-12.8,12.8-12.8
	c6.827,0,12.8,5.973,12.8,12.8S258.56,59.733,251.733,59.733z M251.733,42.667c-2.56,0-4.267,1.707-4.267,4.267
	c0,2.56,1.707,4.267,4.267,4.267c2.56,0,4.267-1.707,4.267-4.267C256,44.373,254.293,42.667,251.733,42.667z"/>
<g>
</g>
<g>
</g>
<g>
</g>
<g>
</g>
<g>
</g>
<g>
</g>
<g>
</g>
<g>
</g>
<g>
</g>
<g>
</g>
<g>
</g>
<g>
</g>
<g>
</g>
<g>
</g>
<g>
</g>
</svg>
