<?xml version="1.0" encoding="iso-8859-1"?>
<!-- Generator: Adobe Illustrator 19.0.0, SVG Export Plug-In . SVG Version: 6.00 Build 0)  -->
<svg version="1.1" id="Capa_1" xmlns="http://www.w3.org/2000/svg" xmlns:xlink="http://www.w3.org/1999/xlink" x="0px" y="0px"
	 viewBox="0 0 512 512" style="enable-background:new 0 0 512 512;" xml:space="preserve">
<g>
	<path style="fill:#FFFFFF;" d="M39.919,85.333H204.8v39.998c0,2.971,1.18,5.82,3.281,7.921c2.101,2.101,4.95,3.281,7.921,3.281
		h54.397l2.668,290.133H39.919c-17.334,0-31.386-14.052-31.386-31.386V116.719C8.533,99.385,22.585,85.333,39.919,85.333z"/>
	<path style="fill:#A4C2F7;" d="M472.081,85.333H307.2v39.998c0,2.971-1.18,5.82-3.281,7.921c-2.101,2.101-4.95,3.281-7.921,3.281
		h-54.397l-2.668,290.133h233.148c17.334,0,31.386-14.052,31.386-31.386V116.719C503.467,99.385,489.415,85.333,472.081,85.333
		L472.081,85.333z"/>
	<path style="fill:#E3E7F2;" d="M446.481,85.333H65.519c-17.334,0-31.386,14.052-31.386,31.386v278.562
		c0,17.334,14.052,31.386,31.386,31.386h380.962c17.334,0,31.386-14.052,31.386-31.386V116.719
		C477.867,99.385,463.815,85.333,446.481,85.333z"/>
	<path style="fill:#A4C2F7;" d="M189.322,317.062l-32.146-16.421c-2.194-1.121-3.576-3.377-3.575-5.842v-9.84
		c15.711-7.111,27.079-21.3,30.591-38.183c7.143-2.184,12.035-8.76,12.076-16.229v-8.533c-0.033-6.333-3.574-12.126-9.196-15.042
		c-3.761-32.094-24.977-45.079-59.071-45.079c-1.614,0-3.197,0.063-4.749,0.188c-11.545,1.22-23.163-1.514-32.953-7.754
		c-3.669-2.348-6.958-5.243-9.754-8.583c-0.465-0.614-1.285-0.839-1.999-0.549c-0.714,0.29-1.143,1.024-1.048,1.788
		c0.341,2.988,0.85,6.469,1.606,10.273c2.817,14.169,1.134,12.1-4.345,25.467c-3.105,7.773-5.088,15.949-5.889,24.281
		c-5.588,2.927-9.103,8.702-9.136,15.01v8.533c0.04,7.469,4.933,14.045,12.076,16.229c3.513,16.883,14.88,31.073,30.591,38.183
		v9.773c0,2.499-1.42,4.782-3.663,5.885l-32.945,16.225c-8.995,4.906-14.592,14.333-14.592,24.579v11.307
		c0,9.64,34.384,14.352,76.8,14.352s76.8-4.713,76.8-14.352v-10.621C204.8,331.501,198.808,321.805,189.322,317.062L189.322,317.062
		z"/>
	<g>
		<path style="fill:#428DFF;" d="M476.017,443.733H35.983C16.119,443.711,0.022,427.614,0,407.75v-303.5
			c0.022-19.864,16.119-35.961,35.983-35.983h440.033c19.864,0.022,35.961,16.119,35.983,35.983v303.5
			C511.978,427.614,495.881,443.711,476.017,443.733z M35.983,85.333c-10.443,0.01-18.907,8.473-18.917,18.917v303.5
			c0.01,10.443,8.473,18.907,18.917,18.917h440.033c10.443-0.01,18.907-8.473,18.917-18.917v-303.5
			c-0.01-10.443-8.473-18.907-18.917-18.917H35.983z"/>
		<path style="fill:#428DFF;" d="M128,375.467c-85.333,0-85.333-16.033-85.333-22.883v-11.308
			c-0.005-13.37,7.3-25.672,19.042-32.067l32.158-15.858v-3.209c-14.271-8.049-24.748-21.45-29.117-37.242
			c-8.346-4.4-13.565-13.065-13.55-22.5v-8.533c0.013-7.773,3.577-15.114,9.675-19.933c1.058-7.748,3.068-15.336,5.984-22.592
			c1.267-3.092,2.342-5.392,3.209-7.275c2.317-4.975,2.317-4.975,0.667-13.292c-0.808-4.075-1.35-7.783-1.708-10.975
			c-0.531-4.558,2.039-8.912,6.286-10.649c4.247-1.737,9.132-0.433,11.947,3.191c2.254,2.629,4.886,4.909,7.808,6.767
			c8.202,5.13,17.89,7.355,27.508,6.317c1.767-0.142,3.575-0.211,5.425-0.208c39.142,0,61.65,16.35,66.975,48.608
			c6.19,4.808,9.815,12.203,9.825,20.041v8.533c0.015,9.435-5.204,18.1-13.55,22.5c-4.368,15.791-14.846,29.193-29.117,37.242v3.3
			l31.042,15.858c12.39,6.16,20.206,18.822,20.158,32.658v10.625C213.333,359.433,213.333,375.467,128,375.467z M59.733,350.65
			c5.325,3.242,26.983,7.75,68.267,7.75s62.942-4.508,68.267-7.75v-8.692c0.023-7.378-4.148-14.129-10.758-17.408l-0.067-0.033
			l-32.15-16.425c-5.061-2.567-8.242-7.767-8.225-13.442v-9.833c-0.003-3.408,2.026-6.49,5.158-7.834
			c13.337-6.048,22.923-18.176,25.725-32.55c0.753-2.833,2.909-5.08,5.708-5.95c3.564-1.092,6.017-4.357,6.075-8.084v-8.533
			c-0.036-3.168-1.827-6.054-4.65-7.492c-2.485-1.315-4.164-3.767-4.492-6.558c-3.042-25.958-18.642-37.533-50.592-37.533
			c-1.383,0-2.742,0.05-4.067,0.158c-12.18,1.198-24.437-1.303-35.175-7.175c0.731,5.543-0.4,11.171-3.217,16
			c-0.783,1.692-1.75,3.767-2.883,6.542c-2.797,7.023-4.584,14.408-5.308,21.933c-0.29,2.821-1.964,5.314-4.466,6.65
			c-2.804,1.445-4.58,4.321-4.617,7.475v8.533c0.058,3.727,2.511,6.991,6.075,8.083c2.799,0.87,4.955,3.117,5.709,5.95
			c2.802,14.374,12.387,26.502,25.725,32.55c3.132,1.344,5.161,4.425,5.158,7.834v9.767c-0.019,5.754-3.291,11.002-8.45,13.55
			l-32.917,16.225c-6.103,3.438-9.866,9.912-9.833,16.917V350.65z M94.958,292.808l-0.009,0.009L94.958,292.808z M73.842,150.892
			l0.042,0.042L73.842,150.892z"/>
		<path style="fill:#428DFF;" d="M341.333,196.267H256c-4.713,0-8.533-3.821-8.533-8.533c0-4.713,3.821-8.533,8.533-8.533h85.333
			c4.713,0,8.533,3.821,8.533,8.533C349.867,192.446,346.046,196.267,341.333,196.267z"/>
		<path style="fill:#428DFF;" d="M384,196.267h-8.533c-4.713,0-8.533-3.821-8.533-8.533c0-4.713,3.821-8.533,8.533-8.533H384
			c4.713,0,8.533,3.821,8.533,8.533C392.533,192.446,388.713,196.267,384,196.267z"/>
		<path style="fill:#428DFF;" d="M264.533,341.333H256c-4.713,0-8.533-3.82-8.533-8.533s3.821-8.533,8.533-8.533h8.533
			c4.713,0,8.533,3.82,8.533,8.533S269.246,341.333,264.533,341.333z"/>
		<path style="fill:#428DFF;" d="M315.733,341.333h-17.067c-4.713,0-8.533-3.82-8.533-8.533s3.82-8.533,8.533-8.533h17.067
			c4.713,0,8.533,3.82,8.533,8.533S320.446,341.333,315.733,341.333z"/>
		<path style="fill:#428DFF;" d="M358.4,341.333h-8.533c-4.713,0-8.533-3.82-8.533-8.533s3.821-8.533,8.533-8.533h8.533
			c4.713,0,8.533,3.82,8.533,8.533S363.113,341.333,358.4,341.333z"/>
		<path style="fill:#428DFF;" d="M409.6,341.333h-17.067c-4.713,0-8.533-3.82-8.533-8.533s3.82-8.533,8.533-8.533H409.6
			c4.713,0,8.533,3.82,8.533,8.533S414.313,341.333,409.6,341.333z"/>
		<path style="fill:#428DFF;" d="M443.733,341.333c-2.27,0.022-4.454-0.869-6.059-2.475c-0.752-0.831-1.358-1.783-1.792-2.817
			c-0.437-1.026-0.669-2.127-0.683-3.242c0-4.713,3.821-8.533,8.533-8.533c4.713,0,8.533,3.82,8.533,8.533
			c0.027,1.119-0.207,2.229-0.683,3.242c-0.433,1.053-1.07,2.011-1.875,2.817C448.098,340.405,445.965,341.288,443.733,341.333z"/>
		<path style="fill:#428DFF;" d="M443.733,247.467H256c-4.713,0-8.533-3.821-8.533-8.533c0-4.713,3.821-8.533,8.533-8.533h187.733
			c4.713,0,8.533,3.821,8.533,8.533C452.267,243.646,448.446,247.467,443.733,247.467z"/>
		<path style="fill:#428DFF;" d="M443.733,298.667H256c-4.713,0-8.533-3.821-8.533-8.533c0-4.713,3.821-8.533,8.533-8.533h187.733
			c4.713,0,8.533,3.821,8.533,8.533C452.267,294.846,448.446,298.667,443.733,298.667z"/>
	</g>
</g>
<g>
</g>
<g>
</g>
<g>
</g>
<g>
</g>
<g>
</g>
<g>
</g>
<g>
</g>
<g>
</g>
<g>
</g>
<g>
</g>
<g>
</g>
<g>
</g>
<g>
</g>
<g>
</g>
<g>
</g>
</svg>
