<?xml version="1.0" encoding="iso-8859-1"?>
<!-- Generator: Adobe Illustrator 19.0.0, SVG Export Plug-In . SVG Version: 6.00 Build 0)  -->
<svg version="1.1" id="Layer_1" xmlns="http://www.w3.org/2000/svg" xmlns:xlink="http://www.w3.org/1999/xlink" x="0px" y="0px"
	 viewBox="0 0 504.318 504.318" style="enable-background:new 0 0 504.318 504.318;" xml:space="preserve">
<path style="fill:#FF7474;" d="M46.845,104.576l48.64-48.64l97.28,97.28l-48.64,48.64l-73.387-72.533l72.533,72.533l0,0
	c-23.893,23.893-23.893,72.533,30.72,127.147s103.253,54.613,128,30.72l97.28,97.28c-42.667,42.667-85.333,48.64-128,30.72
	c0,0-60.587-23.893-145.92-109.227S16.125,232.576,16.125,232.576C-7.768,183.936,4.179,147.243,46.845,104.576L46.845,104.576z
	 M301.992,359.723l97.28,97.28l48.64-48.64l-97.28-97.28L301.992,359.723z"/>
<path style="fill:#51565F;" d="M315.645,503.936c-14.507,0-29.867-3.413-45.227-10.24c-2.56-0.853-62.293-25.6-147.627-110.08
	C38.312,299.136,13.565,238.55,12.712,235.99c-23.893-47.787-14.507-86.187,31.573-132.267l48.64-48.64
	c1.707-1.707,4.267-1.707,5.973,0l97.28,97.28c1.707,1.707,1.707,4.267,0,5.973l-23.893,23.893c-1.707,1.707-4.267,1.707-5.973,0
	s-1.707-4.267,0-5.973l21.333-21.333L96.339,63.616l-45.227,45.227c-43.52,43.52-52.053,77.653-29.867,122.88
	c0,0.853,25.6,61.44,108.373,145.067c83.627,83.627,144.213,108.373,144.213,108.373c42.667,18.773,81.92,9.387,120.32-26.453
	l-69.973-69.973c-1.707-1.707-1.707-4.267,0-5.973c1.707-1.707,4.267-1.707,5.973,0l72.533,72.533c1.707,1.707,1.707,4.267,0,5.973
	C375.379,490.283,346.365,503.936,315.645,503.936z M424.019,439.083c-0.853,0-2.56,0-3.413-0.853c-1.707-1.707-1.707-4.267,0-5.973
	l20.48-21.333l-91.307-91.307l-45.227,45.227c-25.6,25.6-76.8,26.453-133.973-30.72c-54.613-54.613-56.32-104.107-33.28-130.56
	l-69.973-69.973c-1.707-1.707-1.707-4.267,0-5.973s4.267-1.707,5.973,0l72.533,72.533c1.707,1.707,1.707,4.267,0,5.973
	c-23.04,23.04-22.187,69.12,30.72,121.173c52.053,52.907,98.987,52.907,121.173,30.72l48.64-48.64c1.707-1.707,4.267-1.707,5.973,0
	l97.28,97.28c1.707,1.707,1.707,4.267,0,5.973l-23.893,23.893C426.579,439.083,424.872,439.083,424.019,439.083z M499.112,230.87
	L499.112,230.87c-2.56,0-4.267-1.707-4.267-4.267c1.707-58.88-20.48-116.053-61.44-156.16c-40.96-40.107-97.28-63.147-156.16-61.44
	c-2.56,0-4.267-1.707-4.267-4.267s1.707-4.267,4.267-4.267c61.44-1.707,120.32,21.333,162.987,64
	c41.813,41.813,65.707,101.547,64,162.987C503.379,229.163,501.672,230.87,499.112,230.87z M447.912,230.87L447.912,230.87
	c-2.56,0-4.267-1.707-4.267-4.267c1.707-45.227-15.36-89.6-46.08-120.32c-29.867-29.867-74.24-46.933-120.32-46.08l0,0
	c-2.56,0-4.267-1.707-4.267-4.267s1.707-4.267,4.267-4.267c48.64-0.853,94.72,17.067,126.293,48.64
	c32.427,32.427,50.347,78.507,48.64,126.293C452.179,229.163,450.472,230.87,447.912,230.87z M396.712,230.87
	c-2.56,0-4.267-1.707-4.267-4.267c0-19.627-4.267-57.173-31.573-83.627c-27.307-27.307-64-31.573-83.627-31.573
	c-2.56,0-4.267-1.707-4.267-4.267c0-2.56,1.707-4.267,4.267-4.267c21.333,0,60.587,4.267,90.453,33.28
	c29.013,29.013,33.28,69.12,33.28,90.453C400.979,229.163,399.272,230.87,396.712,230.87z"/>
<g>
</g>
<g>
</g>
<g>
</g>
<g>
</g>
<g>
</g>
<g>
</g>
<g>
</g>
<g>
</g>
<g>
</g>
<g>
</g>
<g>
</g>
<g>
</g>
<g>
</g>
<g>
</g>
<g>
</g>
</svg>
