<?xml version="1.0" encoding="iso-8859-1"?>
<!-- Generator: Adobe Illustrator 19.0.0, SVG Export Plug-In . SVG Version: 6.00 Build 0)  -->
<svg version="1.1" id="Layer_1" xmlns="http://www.w3.org/2000/svg" xmlns:xlink="http://www.w3.org/1999/xlink" x="0px" y="0px"
	 viewBox="0 0 503.467 503.467" style="enable-background:new 0 0 503.467 503.467;" xml:space="preserve">
<g transform="translate(1 1)">
	<path style="fill:#80D6FA;" d="M498.2,361.667v51.2H395.8v-51.2c0-18.773,15.36-34.133,34.133-34.133h34.133
		C482.84,327.533,498.2,342.893,498.2,361.667z M3.267,447h68.267V71.533H3.267V447z"/>
	<path style="fill:#F2EDDA;" d="M37.4,3.267l34.133,68.267H3.267L37.4,3.267z M259.267,421.4c0-14.507-11.093-25.6-25.6-25.6
		c-14.507,0-25.6,11.093-25.6,25.6s11.093,25.6,25.6,25.6C248.173,447,259.267,435.907,259.267,421.4z M498.2,412.867v51.2
		c0,18.773-15.36,34.133-34.133,34.133h-34.133c-18.773,0-34.133-15.36-34.133-34.133v-51.2H498.2z"/>
	<path style="fill:#FFD0A1;" d="M139.8,344.6v-34.133v-34.133V242.2v-34.133v-34.133V139.8v-34.133V71.533V37.4
		c0-18.773,15.36-34.133,34.133-34.133H293.4c18.773,0,34.133,15.36,34.133,34.133v426.667c0,18.773-15.36,34.133-34.133,34.133
		H173.933c-18.773,0-34.133-15.36-34.133-34.133V344.6z M233.667,395.8c14.507,0,25.6,11.093,25.6,25.6s-11.093,25.6-25.6,25.6
		c-14.507,0-25.6-11.093-25.6-25.6S219.16,395.8,233.667,395.8z"/>
	<path style="fill:#FF7474;" d="M71.533,464.067c0,18.773-15.36,34.133-34.133,34.133S3.267,482.84,3.267,464.067V447h68.267
		V464.067z"/>
</g>
<path style="fill:#51565F;" d="M465.067,503.467h-34.133c-21.333,0-38.4-17.067-38.4-38.4v-102.4c0-21.333,17.067-38.4,38.4-38.4
	h34.133c21.333,0,38.4,17.067,38.4,38.4v51.2c0,2.56-1.707,4.267-4.267,4.267h-68.267c-2.56,0-4.267-1.707-4.267-4.267
	c0-2.56,1.707-4.267,4.267-4.267h64v-46.933c0-16.213-13.653-29.867-29.867-29.867h-34.133c-16.213,0-29.867,13.653-29.867,29.867
	v102.4c0,16.213,13.653,29.867,29.867,29.867h34.133c16.213,0,29.867-13.653,29.867-29.867V448c0-2.56,1.707-4.267,4.267-4.267
	c2.56,0,4.267,1.707,4.267,4.267v17.067C503.467,486.4,486.4,503.467,465.067,503.467z M294.4,503.467H174.933
	c-21.333,0-38.4-17.067-38.4-38.4v-85.333c0-2.56,1.707-4.267,4.267-4.267c2.56,0,4.267,1.707,4.267,4.267v85.333
	c0,16.213,13.653,29.867,29.867,29.867H294.4c16.213,0,29.867-13.653,29.867-29.867V38.4c0-16.213-13.653-29.867-29.867-29.867
	H174.933c-16.213,0-29.867,13.653-29.867,29.867v29.867H192c2.56,0,4.267,1.707,4.267,4.267c0,2.56-1.707,4.267-4.267,4.267h-46.933
	v25.6h12.8c2.56,0,4.267,1.707,4.267,4.267s-1.707,4.267-4.267,4.267h-12.8v25.6h12.8c2.56,0,4.267,1.707,4.267,4.267
	c0,2.56-1.707,4.267-4.267,4.267h-12.8v25.6h12.8c2.56,0,4.267,1.707,4.267,4.267c0,2.56-1.707,4.267-4.267,4.267h-12.8v25.6H192
	c2.56,0,4.267,1.707,4.267,4.267c0,2.56-1.707,4.267-4.267,4.267h-46.933v25.6h12.8c2.56,0,4.267,1.707,4.267,4.267
	s-1.707,4.267-4.267,4.267h-12.8v25.6h12.8c2.56,0,4.267,1.707,4.267,4.267s-1.707,4.267-4.267,4.267h-12.8v25.6h12.8
	c2.56,0,4.267,1.707,4.267,4.267c0,2.56-1.707,4.267-4.267,4.267h-12.8v25.6H192c2.56,0,4.267,1.707,4.267,4.267
	c0,2.56-1.707,4.267-4.267,4.267h-51.2c-2.56,0-4.267-1.707-4.267-4.267V38.4c0-21.333,17.067-38.4,38.4-38.4H294.4
	c21.333,0,38.4,17.067,38.4,38.4v426.667C332.8,486.4,315.733,503.467,294.4,503.467z M38.4,503.467
	c-21.333,0-38.4-17.067-38.4-38.4V72.533c0-0.853,0-1.707,0.853-1.707L34.987,2.56c1.707-2.56,5.973-2.56,7.68,0L76.8,70.827
	c0,0.853,0.853,0.853,0.853,1.707l0,0l0,0v341.333c0,2.56-1.707,4.267-4.267,4.267c-2.56,0-4.267-1.707-4.267-4.267V76.8H39.253
	c-2.56,0-4.267-1.707-4.267-4.267c0-2.56,1.707-4.267,4.267-4.267H66.56L39.253,13.653L9.387,73.387v391.68
	c0,16.213,13.653,29.867,29.867,29.867S69.12,481.28,69.12,465.067v-12.8H39.253c-2.56,0-4.267-1.707-4.267-4.267
	c0-2.56,1.707-4.267,4.267-4.267h34.133c2.56,0,4.267,1.707,4.267,4.267v17.067C76.8,486.4,59.733,503.467,38.4,503.467z
	 M234.667,452.267c-16.213,0-29.867-13.653-29.867-29.867s13.653-29.867,29.867-29.867s29.867,13.653,29.867,29.867
	S250.88,452.267,234.667,452.267z M234.667,401.067c-11.947,0-21.333,9.387-21.333,21.333s9.387,21.333,21.333,21.333
	c11.947,0,21.333-9.387,21.333-21.333S246.613,401.067,234.667,401.067z M38.4,418.133c-2.56,0-4.267-1.707-4.267-4.267v-307.2
	c0-2.56,1.707-4.267,4.267-4.267s4.267,1.707,4.267,4.267v307.2C42.667,416.427,40.96,418.133,38.4,418.133z"/>
<g>
</g>
<g>
</g>
<g>
</g>
<g>
</g>
<g>
</g>
<g>
</g>
<g>
</g>
<g>
</g>
<g>
</g>
<g>
</g>
<g>
</g>
<g>
</g>
<g>
</g>
<g>
</g>
<g>
</g>
</svg>
