<?xml version="1.0" encoding="iso-8859-1"?>
<!-- Generator: Adobe Illustrator 19.0.0, SVG Export Plug-In . SVG Version: 6.00 Build 0)  -->
<svg version="1.1" id="Layer_1" xmlns="http://www.w3.org/2000/svg" xmlns:xlink="http://www.w3.org/1999/xlink" x="0px" y="0px"
	 viewBox="0 0 503.467 503.467" style="enable-background:new 0 0 503.467 503.467;" xml:space="preserve">
<g transform="translate(1 3)">
	<g>
		<path style="fill:#AAB1BA;" d="M378.733,204.68L378.733,204.68v129.707c24.747-20.48,34.133-42.667,34.133-42.667v-99.84
			l-0.853-0.853L498.2,156.04v-34.133c0,0-74.24,30.72-119.467,49.493l0,0l0,0V204.68z M250.733,377.053
			c-128,0-162.133-85.333-162.133-85.333v-98.987l0.853-1.707l161.28,66.56l128-52.907v129.707
			c-18.773,15.36-34.133,23.04-34.133,23.04C321.56,368.52,290.84,377.053,250.733,377.053z"/>
		<path style="fill:#AAB1BA;" d="M3.267,121.053l247.467-102.4l247.467,102.4c0,0-74.24,30.72-119.467,49.493l0,0l0,0v33.28l0,0
			l-128,52.907l-161.28-66.56L3.267,155.187V121.053z M271.213,131.294c3.413-2.56,5.12-5.973,5.12-10.24
			c0-9.387-11.093-17.067-25.6-17.067c-14.507,0-25.6,7.68-25.6,17.067s11.093,17.067,25.6,17.067
			C259.267,138.12,266.947,135.56,271.213,131.294L271.213,131.294z"/>
	</g>
	<path style="fill:#F2EDDA;" d="M276.333,121.053c0,3.413-1.707,6.827-5.12,10.24c-4.267,4.267-11.947,6.827-20.48,6.827
		c-14.507,0-25.6-7.68-25.6-17.067s11.093-17.067,25.6-17.067C265.24,103.987,276.333,111.667,276.333,121.053"/>
	<path style="fill:#FFE079;" d="M378.733,394.12c9.387,0,17.067,7.68,17.067,17.067s-7.68,17.067-17.067,17.067
		c-9.387,0-17.067-7.68-17.067-17.067S369.347,394.12,378.733,394.12"/>
</g>
<path style="fill:#51565F;" d="M413.867,486.72c-1.707,0-3.413-1.707-4.267-3.413l-8.533-34.133v-0.853
	c0-1.707,1.707-3.413,3.413-4.267c2.56-0.853,4.267,0.853,5.12,3.413l8.533,34.133v0.853c0,1.707-1.707,3.413-3.413,4.267H413.867z
	 M345.6,486.72h-0.853c-1.707-0.853-3.413-2.56-3.413-4.267V481.6l8.533-34.133c0.853-2.56,2.56-3.413,5.12-3.413
	c1.707,0.853,3.413,2.56,3.413,4.267v0.853l-8.533,34.133C349.013,485.013,347.307,486.72,345.6,486.72z M379.733,486.72
	c-2.56,0-4.267-1.707-4.267-4.267v-25.6c0-2.56,1.707-4.267,4.267-4.267c2.56,0,4.267,1.707,4.267,4.267v25.6
	C384,485.013,382.293,486.72,379.733,486.72z M379.733,435.52c-11.947,0-21.333-9.387-21.333-21.333
	c0-10.24,7.68-18.773,17.067-21.333v-55.467l0,0V207.68l0,0v-27.307l-32.427,13.653l0,0l-89.6,36.693
	c-0.853,0.853-2.56,0.853-3.413,0L2.56,128.32C0.853,127.466,0,125.76,0,124.053s0.853-3.413,2.56-4.267l247.467-102.4
	c0.853-0.853,2.56-0.853,3.413,0l247.467,102.4c1.707,0.853,2.56,2.56,2.56,4.267s-0.853,3.413-2.56,4.267L384,176.96v24.747
	l110.933-46.08v-5.973c0-2.56,1.707-4.267,4.267-4.267s4.267,1.707,4.267,4.267v8.533c0,1.707-0.853,3.413-2.56,4.267L384,210.24
	v118.613c17.067-14.507,23.893-31.573,25.6-34.987v-58.88c0-2.56,1.707-4.267,4.267-4.267s4.267,1.707,4.267,4.267v59.733
	c0,0.853,0,0.853,0,1.707c0,0.853-9.387,25.6-34.133,43.52v53.76c9.387,1.707,17.067,10.24,17.067,21.333
	C401.067,426.133,391.68,435.52,379.733,435.52z M379.733,401.387c-6.827,0-12.8,5.973-12.8,12.8s5.973,12.8,12.8,12.8
	c6.827,0,12.8-5.973,12.8-12.8S386.56,401.387,379.733,401.387z M15.36,124.053l236.373,98.133L367.787,174.4l-93.867-34.987
	c-5.12,4.267-12.8,6.827-21.333,6.827c-17.067,0-29.867-9.387-29.867-21.333s12.8-21.333,29.867-21.333
	c17.067,0,29.867,9.387,29.867,21.333c0,2.56-0.853,5.12-1.707,7.68l99.84,37.547l109.227-45.227L253.44,26.773L15.36,124.053z
	 M251.733,111.253c-11.947,0-21.333,5.973-21.333,12.8c0,6.827,9.387,12.8,21.333,12.8c6.827,0,13.653-2.56,17.067-5.973
	l0.853-0.853c1.707-1.707,2.56-4.267,2.56-6.827C273.067,117.227,263.68,111.253,251.733,111.253z M251.733,384.32
	c-129.707,0-165.547-87.04-166.4-87.893c0-0.853,0-0.853,0-1.707v-59.733c0-2.56,1.707-4.267,4.267-4.267
	c2.56,0,4.267,1.707,4.267,4.267v58.88c3.413,7.68,40.107,80.213,153.6,81.92V294.72c0-2.56,1.707-4.267,4.267-4.267
	c2.56,0,4.267,1.707,4.267,4.267v81.067c41.813-0.853,70.827-11.093,87.893-19.627c1.707-0.853,4.267,0,5.973,1.707
	c1.707,1.707,0,4.267-1.707,5.973C328.533,373.227,296.96,384.32,251.733,384.32z M251.733,264.853c-0.853,0-0.853,0-1.707,0
	L2.56,162.453C0.853,161.6,0,159.894,0,158.187v-8.533c0-2.56,1.707-4.267,4.267-4.267s4.267,1.707,4.267,4.267v5.973l243.2,100.693
	l92.16-38.4c2.56-0.853,4.267,0,5.973,2.56c0.853,2.56,0,4.267-2.56,5.973l-93.867,39.253
	C252.587,264.853,252.587,264.853,251.733,264.853z"/>
<g>
</g>
<g>
</g>
<g>
</g>
<g>
</g>
<g>
</g>
<g>
</g>
<g>
</g>
<g>
</g>
<g>
</g>
<g>
</g>
<g>
</g>
<g>
</g>
<g>
</g>
<g>
</g>
<g>
</g>
</svg>
