<?xml version="1.0" encoding="iso-8859-1"?>
<!-- Generator: Adobe Illustrator 19.0.0, SVG Export Plug-In . SVG Version: 6.00 Build 0)  -->
<svg version="1.1" id="Layer_1" xmlns="http://www.w3.org/2000/svg" xmlns:xlink="http://www.w3.org/1999/xlink" x="0px" y="0px"
	 viewBox="0 0 503.467 503.467" style="enable-background:new 0 0 503.467 503.467;" xml:space="preserve">
<g transform="translate(1 1)">
	<path style="fill:#F2EDDA;" d="M361.667,208.067H498.2V498.2H37.4V447c18.773,0,34.133-15.36,34.133-34.133
		c0-34.133-8.533-102.4-34.133-102.4s-34.133,68.267-34.133,102.4v-204.8H139.8v-59.733l-4.267-7.68l115.2-69.12l111.787,67.413
		l-0.853,0.853V208.067z M37.4,447v51.2H3.267v-85.333C3.267,431.64,18.627,447,37.4,447z"/>
	<path style="fill:#AAB1BA;" d="M191,208.067h34.133v-51.2H191V208.067z M276.333,208.067h34.133v-51.2h-34.133V208.067z
		 M54.467,310.467H88.6v-51.2H54.467V310.467z M412.867,421.4H447v-51.2h-34.133V421.4z M412.867,319H447v-51.2h-34.133V319z
		 M191,310.467h34.133v-51.2H191V310.467z M276.333,310.467h34.133v-51.2h-34.133V310.467z"/>
	<g>
		<polygon style="fill:#80D6FA;" points="250.733,37.4 310.467,37.4 310.467,3.267 250.733,3.267 		"/>
		<path style="fill:#80D6FA;" d="M250.733,412.867v51.2H191v-102.4h59.733V412.867z M250.733,412.867v-51.2h59.733v102.4h-59.733
			V412.867z"/>
	</g>
	<path style="fill:#50DD8E;" d="M37.4,310.467c25.6,0,34.133,68.267,34.133,102.4C71.533,431.64,56.173,447,37.4,447
		S3.267,431.64,3.267,412.867C3.267,378.733,11.8,310.467,37.4,310.467"/>
</g>
<path style="fill:#51565F;" d="M499.2,503.467c-2.56,0-4.267-1.707-4.267-4.267V213.333H396.8c-2.56,0-4.267-1.707-4.267-4.267
	c0-2.56,1.707-4.267,4.267-4.267h98.133V192c0-2.56,1.707-4.267,4.267-4.267c2.56,0,4.267,1.707,4.267,4.267v307.2
	C503.467,501.76,501.76,503.467,499.2,503.467z M430.933,503.467h-358.4c-2.56,0-4.267-1.707-4.267-4.267
	c0-2.56,1.707-4.267,4.267-4.267h358.4c2.56,0,4.267,1.707,4.267,4.267C435.2,501.76,433.493,503.467,430.933,503.467z
	 M38.4,503.467c-2.56,0-4.267-1.707-4.267-4.267v-46.933C15.36,449.707,0,433.493,0,413.867C0,384,6.827,307.2,38.4,307.2
	S76.8,384,76.8,413.867c0,19.627-15.36,35.84-34.133,38.4V499.2C42.667,501.76,40.96,503.467,38.4,503.467z M38.4,315.733
	c-19.627,0-29.867,58.027-29.867,98.133c0,16.213,13.653,29.867,29.867,29.867s29.867-13.653,29.867-29.867
	C68.267,373.76,58.027,315.733,38.4,315.733z M396.8,469.333H106.667c-2.56,0-4.267-1.707-4.267-4.267
	c0-2.56,1.707-4.267,4.267-4.267h81.067v-93.867h-12.8c-2.56,0-4.267-1.707-4.267-4.267s1.707-4.267,4.267-4.267h153.6
	c2.56,0,4.267,1.707,4.267,4.267s-1.707,4.267-4.267,4.267h-12.8V460.8H396.8c2.56,0,4.267,1.707,4.267,4.267
	C401.067,467.627,399.36,469.333,396.8,469.333z M256,460.8h51.2v-93.867H256V409.6h4.267c2.56,0,4.267,1.707,4.267,4.267
	c0,2.56-1.707,4.267-4.267,4.267H256V460.8z M196.267,460.8h51.2v-42.667H243.2c-2.56,0-4.267-1.707-4.267-4.267
	c0-2.56,1.707-4.267,4.267-4.267h4.267v-42.667h-51.2V460.8z M362.667,435.2c-2.56,0-4.267-1.707-4.267-4.267v-256
	c0-2.56,1.707-4.267,4.267-4.267s4.267,1.707,4.267,4.267v256C366.933,433.493,365.227,435.2,362.667,435.2z M140.8,435.2
	c-2.56,0-4.267-1.707-4.267-4.267V183.467c0-2.56,1.707-4.267,4.267-4.267c2.56,0,4.267,1.707,4.267,4.267v247.467
	C145.067,433.493,143.36,435.2,140.8,435.2z M448,426.667h-34.133c-2.56,0-4.267-1.707-4.267-4.267v-51.2
	c0-2.56,1.707-4.267,4.267-4.267H448c2.56,0,4.267,1.707,4.267,4.267v51.2C452.267,424.96,450.56,426.667,448,426.667z
	 M418.133,418.133h25.6v-42.667h-25.6V418.133z M448,324.267h-34.133c-2.56,0-4.267-1.707-4.267-4.267v-51.2
	c0-2.56,1.707-4.267,4.267-4.267H448c2.56,0,4.267,1.707,4.267,4.267V320C452.267,322.56,450.56,324.267,448,324.267z
	 M418.133,315.733h25.6v-42.667h-25.6V315.733z M311.467,315.733h-34.133c-2.56,0-4.267-1.707-4.267-4.267v-51.2
	c0-2.56,1.707-4.267,4.267-4.267h34.133c2.56,0,4.267,1.707,4.267,4.267v51.2C315.733,314.027,314.027,315.733,311.467,315.733z
	 M281.6,307.2h25.6v-42.667h-25.6V307.2z M226.133,315.733H192c-2.56,0-4.267-1.707-4.267-4.267v-51.2
	c0-2.56,1.707-4.267,4.267-4.267h34.133c2.56,0,4.267,1.707,4.267,4.267v51.2C230.4,314.027,228.693,315.733,226.133,315.733z
	 M196.267,307.2h25.6v-42.667h-25.6V307.2z M89.6,315.733c-2.56,0-4.267-1.707-4.267-4.267v-46.933h-25.6v12.8
	c0,2.56-1.707,4.267-4.267,4.267c-2.56,0-4.267-1.707-4.267-4.267v-17.067c0-2.56,1.707-4.267,4.267-4.267H89.6
	c2.56,0,4.267,1.707,4.267,4.267v51.2C93.867,314.027,92.16,315.733,89.6,315.733z M4.267,290.133c-2.56,0-4.267-1.707-4.267-4.267
	V192c0-2.56,1.707-4.267,4.267-4.267S8.533,189.44,8.533,192v12.8h98.133c2.56,0,4.267,1.707,4.267,4.267
	c0,2.56-1.707,4.267-4.267,4.267H8.533v72.533C8.533,288.427,6.827,290.133,4.267,290.133z M311.467,213.333h-34.133
	c-2.56,0-4.267-1.707-4.267-4.267v-51.2c0-2.56,1.707-4.267,4.267-4.267h34.133c2.56,0,4.267,1.707,4.267,4.267v51.2
	C315.733,211.627,314.027,213.333,311.467,213.333z M281.6,204.8h25.6v-42.667h-25.6V204.8z M226.133,213.333H192
	c-2.56,0-4.267-1.707-4.267-4.267v-51.2c0-2.56,1.707-4.267,4.267-4.267h34.133c2.56,0,4.267,1.707,4.267,4.267v51.2
	C230.4,211.627,228.693,213.333,226.133,213.333z M196.267,204.8h25.6v-42.667h-25.6V204.8z M379.733,153.6
	c-0.853,0-1.707,0-2.56-0.853l-125.44-75.093l-125.44,75.093c-1.707,0.853-4.267,0.853-5.973-1.707
	c-0.853-1.707-0.853-4.267,1.707-5.973L248.32,69.12V4.267c0-2.56,1.707-4.267,4.267-4.267h59.733c2.56,0,4.267,1.707,4.267,4.267
	V38.4c0,2.56-1.707,4.267-4.267,4.267h-34.133c-2.56,0-4.267-1.707-4.267-4.267s1.707-4.267,4.267-4.267h29.867v-25.6h-51.2v61.44
	l126.293,75.947c1.707,0.853,2.56,3.413,1.707,5.973C382.293,152.747,381.44,153.6,379.733,153.6z"/>
<g>
</g>
<g>
</g>
<g>
</g>
<g>
</g>
<g>
</g>
<g>
</g>
<g>
</g>
<g>
</g>
<g>
</g>
<g>
</g>
<g>
</g>
<g>
</g>
<g>
</g>
<g>
</g>
<g>
</g>
</svg>
