<?xml version="1.0" encoding="iso-8859-1"?>
<!-- Generator: Adobe Illustrator 19.0.0, SVG Export Plug-In . SVG Version: 6.00 Build 0)  -->
<svg version="1.1" id="Layer_1" xmlns="http://www.w3.org/2000/svg" xmlns:xlink="http://www.w3.org/1999/xlink" x="0px" y="0px"
	 viewBox="0 0 512 512" style="enable-background:new 0 0 512 512;" xml:space="preserve">
<g>
	<path style="fill:#FFD24D;" d="M69.818,512C31.32,512,0,480.68,0,442.182s31.32-69.818,69.818-69.818s69.818,31.32,69.818,69.818
		S108.316,512,69.818,512z"/>
	<path style="fill:#FFD24D;" d="M290.909,477.091c-19.279,0-34.909-15.63-34.909-34.909C256,339.521,172.48,256,69.818,256
		c-19.279,0-34.909-15.63-34.909-34.909s15.63-34.909,34.909-34.909c68.381,0,132.667,26.629,181.019,74.981
		c48.353,48.351,74.981,112.639,74.981,181.019C325.818,461.461,310.188,477.091,290.909,477.091z"/>
	<path style="fill:#FFD24D;" d="M477.091,477.091c-19.279,0-34.909-15.63-34.909-34.909c0-205.322-167.042-372.364-372.364-372.364
		c-19.279,0-34.909-15.63-34.909-34.909S50.539,0,69.818,0c59.678,0,117.591,11.696,172.127,34.764
		c52.659,22.273,99.945,54.151,140.542,94.749c40.599,40.598,72.476,87.882,94.749,140.542C500.303,324.591,512,382.502,512,442.182
		C512,461.461,496.37,477.091,477.091,477.091z"/>
</g>
<g>
</g>
<g>
</g>
<g>
</g>
<g>
</g>
<g>
</g>
<g>
</g>
<g>
</g>
<g>
</g>
<g>
</g>
<g>
</g>
<g>
</g>
<g>
</g>
<g>
</g>
<g>
</g>
<g>
</g>
</svg>
