<?xml version="1.0" encoding="iso-8859-1"?>
<!-- Generator: Adobe Illustrator 19.0.0, SVG Export Plug-In . SVG Version: 6.00 Build 0)  -->
<svg version="1.1" id="Layer_1" xmlns="http://www.w3.org/2000/svg" xmlns:xlink="http://www.w3.org/1999/xlink" x="0px" y="0px"
	 viewBox="0 0 503.467 503.467" style="enable-background:new 0 0 503.467 503.467;" xml:space="preserve">
<g transform="translate(1 1)">
	<path style="fill:#80D6FA;" d="M88.6,327.362v85.333H20.333c-9.387,0-17.067-7.68-17.067-17.067v-51.2
		c0-9.387,7.68-17.067,17.067-17.067h34.133H88.6z M464.067,327.362v85.333h-51.2v-85.333H447H464.067z M361.667,327.362v85.333
		H225.133v-85.333H344.6H361.667z M105.667,327.362h119.467v85.333H191h-68.267H88.6v-85.333H105.667z"/>
	<path style="fill:#FFD0A1;" d="M122.733,412.695v85.333H37.4c-9.387,0-17.067-7.68-17.067-17.067v-68.267H88.6H122.733z
		 M481.133,421.229v59.733c0,9.387-7.68,17.067-17.067,17.067H191v-85.333h34.133h136.533v51.2l25.6-17.067l25.6,17.067v-51.2h51.2
		h8.533C472.6,412.695,481.133,412.695,481.133,421.229z M156.867,498.029h-34.133v-85.333H191v85.333H156.867z"/>
	<polygon style="fill:#FF7474;" points="412.867,412.695 412.867,463.895 387.267,446.829 361.667,463.895 361.667,412.695 
		361.667,327.362 412.867,327.362 	"/>
	<path style="fill:#F2EDDA;" d="M447,242.029v85.333h-34.133h-51.2H344.6v-85.333H447z M105.667,242.029v85.333H88.6H54.467v-68.267
		c0-9.387,7.68-17.067,17.067-17.067H105.667z M498.2,259.095v59.733c0,8.533-8.533,8.533-8.533,8.533h-25.6H447v-85.333h34.133
		C490.52,242.029,498.2,249.708,498.2,259.095z M344.6,242.029v85.333H225.133H105.667v-85.333H344.6z"/>
	<path style="fill:#FF7474;" d="M353.133,122.562c0,42.667-17.067,68.267-17.067,68.267c-5.12,8.533-19.627,17.067-34.133,17.067
		s-25.6-8.533-25.6-8.533s-11.093,8.533-25.6,8.533c-14.507,0-28.16-8.533-34.133-17.067c0,0-17.067-17.067-17.067-68.267
		c0-28.16,23.04-51.2,51.2-51.2c9.387,0,17.92,4.267,25.6,8.533c7.68-4.267,16.213-8.533,25.6-8.533
		C330.093,71.362,353.133,94.402,353.133,122.562"/>
	<path style="fill:#BFFF05;" d="M334.36,4.802c0,0,5.973,17.92-5.973,29.867c-11.947,11.947-29.867,5.973-29.867,5.973
		s-5.973-17.92,5.973-29.867C316.44-1.171,334.36,4.802,334.36,4.802"/>
</g>
<path style="fill:#51565F;" d="M465.067,503.295H38.4c-11.947,0-21.333-9.387-21.333-21.333v-34.133c0-2.56,1.707-4.267,4.267-4.267
	s4.267,1.707,4.267,4.267v34.133c0,6.827,5.973,12.8,12.8,12.8h81.067v-46.933c0-2.56,1.707-4.267,4.267-4.267
	c2.56,0,4.267,1.707,4.267,4.267v46.933h25.6v-46.933c0-2.56,1.707-4.267,4.267-4.267c2.56,0,4.267,1.707,4.267,4.267v46.933h25.6
	v-46.933c0-2.56,1.707-4.267,4.267-4.267s4.267,1.707,4.267,4.267v46.933h268.8c6.827,0,12.8-5.973,12.8-12.8v-59.733
	c0-3.413-2.56-4.267-4.267-4.267H448c-2.56,0-4.267-1.707-4.267-4.267s1.707-4.267,4.267-4.267h12.8v-81.067
	c0-2.56,1.707-4.267,4.267-4.267h25.6c1.707,0,4.267-0.853,4.267-4.267v-59.733c0-6.827-5.973-12.8-12.8-12.8h-29.867v46.933
	c0,2.56-1.707,4.267-4.267,4.267s-4.267-1.707-4.267-4.267v-46.933h-93.867v46.933c0,2.56-1.707,4.267-4.267,4.267
	s-4.267-1.707-4.267-4.267v-46.933h-230.4v46.933c0,2.56-1.707,4.267-4.267,4.267s-4.267-1.707-4.267-4.267v-46.933H72.533
	c-6.827,0-12.8,5.973-12.8,12.8v34.133c0,2.56-1.707,4.267-4.267,4.267c-2.56,0-4.267-1.707-4.267-4.267v-34.133
	c0-11.947,9.387-21.333,21.333-21.333h409.6c11.947,0,21.333,9.387,21.333,21.333v59.733c0,9.387-7.68,12.8-12.8,12.8h-21.333v76.8
	h4.267c5.12,0,12.8,3.413,12.8,12.8v59.733C486.4,493.908,477.013,503.295,465.067,503.295z M413.867,469.162
	c-0.853,0-1.707,0-2.56-0.853l-23.04-15.36l-23.04,15.36c-1.707,0.853-3.413,0.853-4.267,0c-1.707-0.853-2.56-2.56-2.56-3.413
	V332.629h-128v76.8h98.133c2.56,0,4.267,1.707,4.267,4.267s-1.707,4.267-4.267,4.267h-307.2C9.387,417.962,0,408.575,0,396.629
	v-51.2c0-11.947,9.387-21.333,21.333-21.333h409.6c2.56,0,4.267,1.707,4.267,4.267c0,2.56-1.707,4.267-4.267,4.267h-12.8v132.267
	c0,1.707-0.853,3.413-2.56,3.413C415.573,469.162,414.72,469.162,413.867,469.162z M388.267,443.562c0.853,0,1.707,0,2.56,0.853
	l18.773,12.8V332.629h-42.667v124.587l18.773-12.8C386.56,443.562,387.413,443.562,388.267,443.562z M93.867,409.429h128v-76.8h-128
	V409.429z M21.333,332.629c-7.68,0-12.8,5.12-12.8,12.8v51.2c0,6.827,5.973,12.8,12.8,12.8h64v-76.8H21.333z M174.933,383.829
	c-2.56,0-4.267-1.707-4.267-4.267v-17.067c0-2.56,1.707-4.267,4.267-4.267c2.56,0,4.267,1.707,4.267,4.267v17.067
	C179.2,382.122,177.493,383.829,174.933,383.829z M140.8,383.829c-2.56,0-4.267-1.707-4.267-4.267v-17.067
	c0-2.56,1.707-4.267,4.267-4.267c2.56,0,4.267,1.707,4.267,4.267v17.067C145.067,382.122,143.36,383.829,140.8,383.829z
	 M302.933,213.162c-11.093,0-21.333-5.12-25.6-7.68c-4.267,2.56-14.507,7.68-25.6,7.68c-16.213,0-30.72-9.387-37.547-18.773
	c0,0-17.92-17.92-17.92-70.827c0-30.72,24.747-55.467,55.467-55.467c9.387,0,18.773,4.267,25.6,7.68
	c6.827-4.267,16.213-7.68,25.6-7.68c30.72,0,55.467,24.747,55.467,55.467c0,43.52-17.067,69.12-17.92,70.827
	C334.507,203.775,319.147,213.162,302.933,213.162z M277.333,196.095c0.853,0,1.707,0,2.56,0.853c0,0,10.24,7.68,23.04,7.68
	s25.6-7.68,30.72-15.36c0,0,16.213-25.6,16.213-65.707c0-25.6-21.333-46.933-46.933-46.933c-8.533,0-17.067,4.267-23.04,7.68
	c-1.707,0.853-2.56,0.853-4.267,0c-5.973-3.413-14.507-7.68-23.04-7.68c-25.6,0-46.933,21.333-46.933,46.933
	c0,48.64,15.36,64.853,16.213,64.853c5.973,7.68,18.773,16.213,30.72,16.213c12.8,0,23.04-7.68,23.04-7.68
	C275.627,196.095,276.48,196.095,277.333,196.095z M277.333,51.029c-1.707,0-2.56-0.853-3.413-1.707l-25.6-42.667
	c0-0.853-0.853-1.707-0.853-2.56c0-1.707,0.853-2.56,1.707-3.413c1.707-0.853,4.267-0.853,5.973,1.707l25.6,42.667
	c0,0.853,0.853,1.707,0.853,2.56c0,1.707-0.853,2.56-1.707,3.413C279.04,51.029,278.187,51.029,277.333,51.029z M309.76,47.615
	c-6.827,0-11.947-1.707-11.947-1.707c-0.853,0-2.56-1.707-2.56-2.56c0-0.853-6.827-20.48,6.827-34.133
	c13.653-13.653,33.28-7.68,34.133-6.827c0.853,0,2.56,1.707,2.56,2.56c0,0.853,6.827,20.48-6.827,34.133
	C325.12,45.908,316.587,47.615,309.76,47.615z M302.933,38.229c4.267,0.853,16.213,2.56,23.893-5.973
	c7.68-7.68,6.827-18.773,5.973-23.893c-4.267-0.853-16.213-2.56-23.893,5.12C300.373,22.869,302.08,33.962,302.933,38.229z"/>
<g>
</g>
<g>
</g>
<g>
</g>
<g>
</g>
<g>
</g>
<g>
</g>
<g>
</g>
<g>
</g>
<g>
</g>
<g>
</g>
<g>
</g>
<g>
</g>
<g>
</g>
<g>
</g>
<g>
</g>
</svg>
