<?xml version="1.0" encoding="iso-8859-1"?>
<!-- Generator: Adobe Illustrator 19.0.0, SVG Export Plug-In . SVG Version: 6.00 Build 0)  -->
<svg version="1.1" id="Layer_1" xmlns="http://www.w3.org/2000/svg" xmlns:xlink="http://www.w3.org/1999/xlink" x="0px" y="0px"
	 viewBox="0 0 505.174 505.174" style="enable-background:new 0 0 505.174 505.174;" xml:space="preserve">
<g transform="translate(7 1)">
	<circle style="fill:#80D6FA;" cx="261.8" cy="218.307" r="213.333"/>
	<path style="fill:#50DD8E;" d="M271.187,353.987c7.68,7.68,14.507,22.187,7.68,29.013c-7.68,7.68-22.187,7.68-29.013,0
		C238.76,372.76,264.36,346.307,271.187,353.987z M408.573,234.52c14.507,14.507-14.507,22.187-22.187,44.373
		c-7.68,22.187-36.693,22.187-44.373,14.507c-7.68-7.68-22.187-14.507-36.693-22.187c-14.507-7.68,0-22.187,14.507-14.507
		c14.507,7.68,20.48-22.187,36.693-22.187C365.054,234.52,394.067,220.014,408.573,234.52z M342.867,22.894
		c60.587,24.747,107.52,76.8,125.44,141.653C441,175.64,397.48,181.614,387.24,176.494c-14.507-7.68-14.507-44.373-40.96-45.227
		c-10.24-0.853-22.187,44.373-36.693,51.2c-14.507,7.68-22.187-22.187-36.693-44.373S295.08,93.72,309.587,93.72
		c14.507,0,14.507-36.693,14.507-44.373c0-7.68-14.507-16.213-10.24-36.693L342.867,22.894z M261.8,433.347
		c-25.6,0-51.2-5.973-51.2-5.973c-93.013-23.04-162.133-106.667-162.133-207.36c0-8.533,0-16.213,1.707-24.747l0,0
		c27.307-1.707,59.733,3.413,49.493,13.653c-14.507,14.507-7.68,73.387,22.187,51.2c29.867-22.187,44.373-51.2,36.693-73.387
		c-7.68-22.187,51.2-29.867,51.2,7.68s-14.507,29.867-22.187,51.2c-7.68,22.187,7.68,22.187,14.507,29.013
		c7.68,7.68,29.013,22.187,7.68,73.387C193.533,387.267,233.64,415.427,261.8,433.347z"/>
</g>
<path style="fill:#51565F;" d="M268.8,505.174c-2.56,0-4.267-1.707-4.267-4.267V471.04C128,468.48,17.067,356.694,17.067,219.307
	c0-2.56,1.707-4.267,4.267-4.267s4.267,1.707,4.267,4.267c0,133.973,109.227,243.2,243.2,243.2
	c52.907,0,103.253-16.213,145.067-47.787c1.707-1.707,4.267-0.853,5.973,0.853c1.707,1.707,0.853,4.267-0.853,5.973
	c-42.667,31.573-93.013,48.64-145.92,49.493v29.867C273.067,503.467,271.36,505.174,268.8,505.174z M268.8,436.907
	c-0.853,0-1.707,0-2.56-0.853c-21.333-13.653-72.533-45.227-52.907-89.6c19.627-45.227,3.413-58.88-4.267-66.56
	c-0.853-0.853-1.707-1.707-1.707-1.707c-1.707-1.707-3.413-2.56-5.973-4.267c-6.827-4.267-17.067-10.24-10.24-29.867
	c3.413-9.387,7.68-13.653,11.093-17.92c5.973-5.973,10.24-11.093,10.24-31.573c0-11.093-6.827-16.213-11.947-18.773
	c-10.24-4.267-23.893-2.56-29.013,2.56c-3.413,2.56-2.56,5.973-2.56,7.68c7.68,23.893-7.68,55.467-38.4,78.507
	c-14.507,11.093-23.893,3.413-27.307-0.853c-11.093-13.653-11.947-46.08,0-57.173c0.853-0.853,0.853-0.853,0.853-0.853
	c-1.707-2.56-20.48-6.827-43.52-5.973c-0.853,6.827-0.853,13.653-0.853,20.48c0,96.427,64.853,180.053,158.72,203.093
	c2.56,0.853,3.413,2.56,3.413,5.12c-0.853,2.56-2.56,3.413-5.12,3.413C119.467,407.893,51.2,320.853,51.2,220.16
	c0-9.387,0.853-17.067,1.707-25.6c0-1.707,1.707-3.413,4.267-3.413c0.853,0,49.493-1.707,55.467,11.093
	c0.853,1.707,1.707,5.973-2.56,9.387c-8.533,8.533-7.68,35.84,0.853,46.08c2.56,2.56,6.827,5.973,16.213-0.853
	c28.16-20.48,41.813-48.64,34.987-69.12c-1.707-5.973-0.853-11.947,4.267-16.213c8.533-7.68,25.6-9.387,38.4-4.267
	c11.093,5.12,17.067,14.507,17.067,26.453c0,24.747-6.827,31.573-12.8,37.547c-3.413,3.413-6.827,7.68-9.387,15.36
	c-4.267,13.653,0,16.213,6.827,19.627c2.56,1.707,5.12,3.413,7.68,5.12c0.853,0.853,0.853,0.853,1.707,1.707
	c9.387,8.533,28.16,26.453,6.827,76.8c-13.653,32.427,16.213,58.027,48.64,78.507c114.347-0.853,208.213-93.867,208.213-209.067
	c0-9.387-0.853-19.627-1.707-29.013c0-2.56,1.707-4.267,3.413-5.12c2.56,0,4.267,1.707,5.12,3.413
	c1.707,10.24,1.707,20.48,1.707,29.867C486.4,339.627,389.12,436.907,268.8,436.907z M271.36,392.534
	c-6.827,0-12.8-2.56-17.92-6.827c-3.413-3.413-4.267-8.533-3.413-14.507c2.56-10.24,12.8-21.333,21.333-23.04
	c5.12-1.707,8.533,0.853,9.387,1.707c8.533,8.533,17.067,25.6,7.68,35.84l0,0C284.16,389.974,278.187,392.534,271.36,392.534z
	 M274.773,355.84c-1.707,0-8.533,3.413-12.8,11.093c-2.56,4.267-5.12,10.24-2.56,12.8c5.973,5.973,17.92,5.973,23.04,0
	C287.573,374.614,281.6,362.667,274.773,355.84C275.627,355.84,275.627,355.84,274.773,355.84z M364.373,301.227
	c-7.68,0-14.507-1.707-17.92-5.973c-6.827-6.827-21.333-14.507-35.84-21.333c-8.533-4.267-9.387-11.093-7.68-16.213
	c3.413-7.68,14.507-11.093,25.6-5.973c4.267,1.707,6.827,0,13.653-8.533c5.12-6.827,11.947-14.507,21.333-14.507
	c0.853,0,4.267-0.853,7.68-1.707c12.8-3.413,34.133-9.387,46.933,3.413l0,0l0,0c3.413,3.413,5.12,6.827,5.12,11.093
	c0,6.827-5.12,11.947-11.093,17.92c-5.973,5.12-11.947,11.947-14.507,19.627c-3.413,11.093-11.947,17.92-23.893,21.333
	C371.2,301.227,367.787,301.227,364.373,301.227z M319.147,258.56c-4.267,0-6.827,1.707-7.68,3.413
	c-0.853,1.707,1.707,3.413,3.413,5.12c14.507,7.68,29.867,15.36,37.547,23.04c2.56,2.56,10.24,4.267,19.627,2.56
	c5.12-0.853,14.507-5.12,17.92-15.36c3.413-10.24,11.093-17.92,17.067-23.04c4.267-4.267,8.533-8.533,8.533-11.093
	c0-1.707-0.853-3.413-2.56-5.12l0,0c-9.387-9.387-26.453-4.267-38.4-0.853c-4.267,1.707-7.68,2.56-10.24,2.56
	c-5.973,0-10.24,5.12-14.507,11.093c-5.973,6.827-12.8,16.213-23.893,10.24C323.413,258.56,321.707,258.56,319.147,258.56z
	 M311.467,186.88c-10.24,0-17.067-13.653-23.893-27.307c-3.413-6.827-6.827-13.653-11.093-20.48
	c-5.12-7.68-5.12-16.213-0.853-24.747c8.533-15.36,30.72-26.453,40.96-26.453c5.12,0,10.24-10.24,10.24-40.107
	c0-0.853-1.707-3.413-3.413-5.973c-3.413-5.973-9.387-14.507-7.68-27.307c-15.36-3.413-31.573-5.12-47.787-5.12
	c-92.16,0-174.933,62.293-200.533,150.187c-0.853,2.56-3.413,3.413-5.12,2.56c-2.56-0.853-3.413-3.413-2.56-5.12
	C86.187,64.853,172.373,0,268.8,0c17.92,0,35.84,2.56,53.76,6.827c2.56,0.853,3.413,2.56,3.413,5.12
	c-2.56,11.947,1.707,18.773,5.973,24.747c2.56,3.413,4.267,6.827,4.267,10.24c0,32.427-5.973,48.64-18.773,48.64
	c-8.533,0-27.307,9.387-34.133,21.333c-3.413,5.973-2.56,11.093,0.853,16.213c4.267,6.827,8.533,14.507,11.947,20.48
	c8.533,17.067,13.653,24.747,19.627,22.187c5.973-3.413,12.8-16.213,17.92-27.307c7.68-14.507,12.8-24.747,20.48-24.747l0,0
	c17.92,0.853,25.6,16.213,31.573,29.013c3.413,7.68,6.827,14.507,11.093,17.067c7.68,4.267,46.08,0,74.24-10.24
	C453.12,98.986,407.894,48.64,349.013,24.747c-2.56-0.853-3.413-3.413-2.56-5.973c0.853-2.56,3.413-3.413,5.973-2.56
	c62.293,25.6,110.08,79.36,128,144.213c0.853,1.707-0.853,4.267-2.56,5.12c-27.307,11.947-72.533,17.92-84.48,11.947
	c-6.827-3.413-11.093-11.947-15.36-20.48c-5.973-11.947-11.093-23.04-23.893-23.893c-2.56,0.853-8.533,12.8-12.8,20.48
	c-6.827,12.8-13.653,26.453-22.187,30.72C315.733,186.027,314.027,186.88,311.467,186.88z"/>
<g>
</g>
<g>
</g>
<g>
</g>
<g>
</g>
<g>
</g>
<g>
</g>
<g>
</g>
<g>
</g>
<g>
</g>
<g>
</g>
<g>
</g>
<g>
</g>
<g>
</g>
<g>
</g>
<g>
</g>
</svg>
