<?xml version="1.0" encoding="iso-8859-1"?>
<!-- Generator: Adobe Illustrator 19.0.0, SVG Export Plug-In . SVG Version: 6.00 Build 0)  -->
<svg version="1.1" id="Layer_1" xmlns="http://www.w3.org/2000/svg" xmlns:xlink="http://www.w3.org/1999/xlink" x="0px" y="0px"
	 viewBox="0 0 505.259 505.259" style="enable-background:new 0 0 505.259 505.259;" xml:space="preserve">
<g transform="translate(1 13)">
	<path style="fill:#FF7474;" d="M157.72,94.607l204.8,204.8c0,0-46.08,1.707-94.72,24.747l0,0L137.24,192.74l-0.853-0.853
		C158.573,143.247,157.72,94.607,157.72,94.607z M153.453,423.14L153.453,423.14l-24.747,24.747
		c-13.653,13.653-34.987,13.653-48.64,0L68.12,435.94l-5.973,5.973c-3.413,3.413-8.533,3.413-11.947,0l-29.867-29.867
		c-3.413-3.413-3.413-8.533,0-11.947l5.973-5.973L14.36,382.181c-13.653-13.653-13.653-34.987,0-48.64l23.893-23.893L153.453,423.14
		z"/>
	<path style="fill:#ECF4F7;" d="M267.8,324.154L267.8,324.154c-18.773,9.387-37.547,21.333-54.613,38.4L178.2,397.54l-25.6,25.6
		L37.4,308.794l60.587-60.587c17.067-17.067,29.013-35.84,37.547-55.467h0.853L267.8,324.154z M153.453,423.14l25.6-25.6
		l21.333,21.333h25.6c0,8.533-5.973,16.213-5.973,16.213l21.333,21.333c3.413,3.413,3.413,8.533,0,11.947l-15.36,15.36
		c-3.413,3.413-8.533,3.413-11.947,0L153.453,423.14L153.453,423.14z"/>
</g>
<path style="fill:#51565F;" d="M221.013,504.407c-3.413,0-6.827-0.853-9.387-3.413L153.6,442.967l-21.333,21.333
	c-15.36,15.36-39.253,15.36-54.613,0l-9.387-9.387l-3.413,3.413c-5.12,5.12-12.8,5.12-17.92,0l-29.867-29.867
	c-2.56-2.56-3.413-5.973-3.413-9.387c0-3.413,1.707-6.827,3.413-9.387l3.413-3.413l-9.387-9.387C3.413,390.061,0,379.82,0,369.58
	c0-10.24,4.267-19.627,11.093-27.307l23.893-23.893l0,0l0,0l60.587-60.587C153.6,199.767,153.6,108.46,153.6,107.607
	c0-1.707,0.853-3.413,2.56-4.267c1.707-0.853,3.413,0,4.267,0.853l204.8,204.8c0.853,0.853,1.707,3.413,0.853,4.267
	c-0.853,1.707-1.707,2.56-3.413,2.56c-0.853,0-87.893,4.267-146.773,62.293l-35.84,35.84c-1.707,1.707-4.267,1.707-5.973,0
	c-1.707-1.707-1.707-4.267,0-5.973l35.84-35.84c15.36-15.36,33.28-27.307,50.347-36.693L157.013,232.193
	c-1.707-1.707-1.707-4.267,0-5.973s4.267-1.707,5.973,0l104.96,104.96c34.987-16.213,68.267-21.333,83.627-23.04L160.426,116.993
	c-1.707,26.453-10.24,96.427-59.733,146.773L43.52,320.94l90.453,90.453c1.707,1.707,1.707,4.267,0,5.973
	c-1.707,1.707-4.267,1.707-5.973,0l-90.453-90.453l-21.333,21.333c-5.973,5.973-8.533,12.8-8.533,21.333s3.413,15.36,8.533,21.333
	l11.947,11.947c1.707,1.707,1.707,4.267,0,5.973l-5.973,5.973c-0.853,0.853-0.853,1.707-0.853,3.413c0,0.853,0.853,2.56,0.853,3.413
	L52.053,451.5c1.707,1.707,4.267,1.707,5.973,0l5.973-5.973c1.707-1.707,4.267-1.707,5.973,0l11.947,11.947
	c11.947,11.947,30.72,11.947,42.667,0l23.893-23.893c1.707-1.707,4.267-1.707,5.973,0l61.44,61.44c1.707,1.707,4.267,1.707,5.973,0
	l15.36-15.36c0.853-0.853,0.853-1.707,0.853-3.413c0-0.853-0.853-2.56-0.853-3.413L215.893,451.5
	c-1.707-1.707-1.707-3.413-0.853-5.12c0,0,3.413-4.267,4.267-9.387h-21.333c-2.56,0-4.267-1.707-4.267-4.267
	c0-2.56,1.707-4.267,4.267-4.267h25.6c2.56,0,4.267,1.707,4.267,4.267c0,5.973-2.56,11.947-4.267,16.213l19.627,19.627
	c2.56,2.56,3.413,5.973,3.413,9.387s-1.707,6.827-3.413,9.387l-15.36,15.36C227.84,503.554,224.427,504.407,221.013,504.407z
	 M448.853,231.34L448.853,231.34c-2.56,0-4.267-1.707-4.267-4.267c1.707-45.227-15.36-89.6-46.08-120.32
	c-29.867-29.867-74.24-46.933-120.32-46.08l0,0c-2.56,0-4.267-1.707-4.267-4.267s1.707-4.267,4.267-4.267
	c48.64-0.853,94.72,17.067,126.293,48.64c32.427,32.427,50.347,78.507,48.64,126.293C453.12,229.634,451.413,231.34,448.853,231.34z
	 M397.653,231.34c-2.56,0-4.267-1.707-4.267-4.267c0-19.627-4.267-57.173-31.573-83.627c-27.307-27.307-64-31.573-83.627-31.573
	c-2.56,0-4.267-1.707-4.267-4.267c0-2.56,1.707-4.267,4.267-4.267c21.333,0,60.587,4.267,90.453,33.28
	c29.013,29.013,33.28,69.12,33.28,90.453C401.92,229.634,400.213,231.34,397.653,231.34z M500.053,231.34L500.053,231.34
	c-2.56,0-4.267-1.707-4.267-4.267c1.707-58.88-20.48-116.053-61.44-156.16c-40.96-40.96-97.28-63.147-156.16-61.44
	c-2.56,0-4.267-1.707-4.267-4.267s1.707-4.267,4.267-4.267c60.587-1.707,120.32,21.333,162.987,64
	c41.813,41.813,65.707,101.547,64,162.987C504.32,229.634,502.613,231.34,500.053,231.34z"/>
<g>
</g>
<g>
</g>
<g>
</g>
<g>
</g>
<g>
</g>
<g>
</g>
<g>
</g>
<g>
</g>
<g>
</g>
<g>
</g>
<g>
</g>
<g>
</g>
<g>
</g>
<g>
</g>
<g>
</g>
</svg>
