<?xml version="1.0" encoding="iso-8859-1"?>
<!-- Generator: Adobe Illustrator 19.0.0, SVG Export Plug-In . SVG Version: 6.00 Build 0)  -->
<svg version="1.1" id="Layer_1" xmlns="http://www.w3.org/2000/svg" xmlns:xlink="http://www.w3.org/1999/xlink" x="0px" y="0px"
	 viewBox="0 0 503.467 503.467" style="enable-background:new 0 0 503.467 503.467;" xml:space="preserve">
<g transform="translate(1 1)">
	<path style="fill:#F2EDDA;" d="M412.867,327.533c-46.933,0-85.333,38.4-85.333,85.333c0,19.627,6.827,36.693,17.067,51.2H63
		c-14.507,0-25.6-11.093-25.6-25.6V139.8h426.667v204.8C449.56,334.36,431.64,327.533,412.867,327.533L412.867,327.533z"/>
	<path style="fill:#AAB1BA;" d="M276.333,225.133h34.133V191h-34.133V225.133z M105.667,395.8H139.8v-34.133h-34.133V395.8z
		 M105.667,310.467H139.8v-34.133h-34.133V310.467z M105.667,225.133H139.8V191h-34.133V225.133z M276.333,395.8h34.133v-34.133
		h-34.133V395.8z M276.333,310.467h34.133v-34.133h-34.133V310.467z M361.667,310.467H395.8v-34.133h-34.133V310.467z
		 M361.667,225.133H395.8V191h-34.133V225.133z M191,395.8h34.133v-34.133H191V395.8z M191,310.467h34.133v-34.133H191V310.467z
		 M191,225.133h34.133V191H191V225.133z"/>
	<path style="fill:#ECF4F7;" d="M139.8,20.333v34.133c0,9.387-7.68,17.067-17.067,17.067c-4.267,0-8.533-1.707-11.947-5.12
		c-3.413-3.413-5.12-7.68-5.12-11.947V20.333c0-9.387,7.68-17.067,17.067-17.067c4.267,0,8.533,1.707,11.947,5.12
		C138.093,11.8,139.8,16.067,139.8,20.333z M395.8,20.333v34.133c0,9.387-7.68,17.067-17.067,17.067
		c-5.12,0-9.387-1.707-11.947-5.12c-3.413-3.413-5.12-7.68-5.12-11.947V20.333c0-9.387,7.68-17.067,17.067-17.067
		c5.12,0,9.387,1.707,11.947,5.12C394.093,11.8,395.8,16.067,395.8,20.333z M310.467,20.333v34.133
		c0,9.387-7.68,17.067-17.067,17.067c-5.12,0-9.387-1.707-11.947-5.12c-3.413-3.413-5.12-7.68-5.12-11.947V20.333
		c0-9.387,7.68-17.067,17.067-17.067c5.12,0,9.387,1.707,11.947,5.12C308.76,11.8,310.467,16.067,310.467,20.333z M225.133,20.333
		v34.133c0,9.387-7.68,17.067-17.067,17.067c-5.12,0-9.387-1.707-11.947-5.12C192.707,63,191,58.733,191,54.467V20.333
		c0-9.387,7.68-17.067,17.067-17.067c5.12,0,9.387,1.707,11.947,5.12C223.427,11.8,225.133,16.067,225.133,20.333z"/>
	<path style="fill:#FFD0A1;" d="M498.2,105.667v307.2c0-28.16-13.653-52.907-34.133-68.267V139.8H37.4v298.667
		c0,14.507,11.093,25.6,25.6,25.6h281.6c15.36,20.48,40.107,34.133,68.267,34.133H37.4c-17.067,0-34.133-17.067-34.133-34.133
		v-358.4H498.2z"/>
	<path style="fill:#FF7474;" d="M498.2,54.467v51.2H3.267v-51.2c0-17.067,17.067-34.133,34.133-34.133h68.267v34.133
		c0,4.267,1.707,8.533,5.12,11.947c3.413,3.413,7.68,5.12,11.947,5.12c9.387,0,17.067-7.68,17.067-17.067V20.333H191v34.133
		c0,4.267,1.707,8.533,5.12,11.947c3.413,3.413,7.68,5.12,11.947,5.12c9.387,0,17.067-7.68,17.067-17.067V20.333h51.2v34.133
		c0,4.267,1.707,8.533,5.12,11.947c3.413,3.413,7.68,5.12,11.947,5.12c9.387,0,17.067-7.68,17.067-17.067V20.333h51.2v34.133
		c0,4.267,1.707,8.533,5.12,11.947c3.413,3.413,7.68,5.12,11.947,5.12c9.387,0,17.067-7.68,17.067-17.067V20.333h68.267
		C481.133,20.333,498.2,37.4,498.2,54.467"/>
	<path style="fill:#ECF4F7;" d="M464.067,344.6c20.48,15.36,34.133,40.107,34.133,68.267c0,46.933-38.4,85.333-85.333,85.333
		c-28.16,0-52.907-13.653-68.267-34.133c-11.093-14.507-17.067-32.427-17.067-51.2c0-46.933,38.4-85.333,85.333-85.333
		C431.64,327.533,449.56,334.36,464.067,344.6"/>
</g>
<path style="fill:#51565F;" d="M413.867,503.467c-49.493,0-89.6-40.107-89.6-89.6s40.107-89.6,89.6-89.6s89.6,40.107,89.6,89.6
	S463.36,503.467,413.867,503.467z M413.867,332.8c-44.373,0-81.067,36.693-81.067,81.067s36.693,81.067,81.067,81.067
	s81.067-36.693,81.067-81.067S458.24,332.8,413.867,332.8z M320,503.467H38.4c-19.627,0-38.4-18.773-38.4-38.4v-358.4
	c0-2.56,1.707-4.267,4.267-4.267h460.8c2.56,0,4.267,1.707,4.267,4.267s-1.707,4.267-4.267,4.267H8.533v354.133
	c0,14.507,15.36,29.867,29.867,29.867H320c2.56,0,4.267,1.707,4.267,4.267C324.267,501.76,322.56,503.467,320,503.467z
	 M302.933,469.333H64c-16.213,0-29.867-13.653-29.867-29.867V140.8c0-2.56,1.707-4.267,4.267-4.267h426.667
	c2.56,0,4.267,1.707,4.267,4.267v162.133c0,2.56-1.707,4.267-4.267,4.267s-4.267-1.707-4.267-4.267V145.067H42.667v294.4
	c0,11.947,9.387,21.333,21.333,21.333h238.933c2.56,0,4.267,1.707,4.267,4.267C307.2,467.627,305.493,469.333,302.933,469.333z
	 M465.067,418.133h-51.2c-2.56,0-4.267-1.707-4.267-4.267v-34.133c0-2.56,1.707-4.267,4.267-4.267s4.267,1.707,4.267,4.267V409.6
	h46.933c2.56,0,4.267,1.707,4.267,4.267C469.333,416.427,467.627,418.133,465.067,418.133z M294.4,401.067h-17.067
	c-2.56,0-4.267-1.707-4.267-4.267v-34.133c0-2.56,1.707-4.267,4.267-4.267H294.4c2.56,0,4.267,1.707,4.267,4.267
	s-1.707,4.267-4.267,4.267h-12.8v25.6h12.8c2.56,0,4.267,1.707,4.267,4.267S296.96,401.067,294.4,401.067z M226.133,401.067H192
	c-2.56,0-4.267-1.707-4.267-4.267v-34.133c0-2.56,1.707-4.267,4.267-4.267h34.133c2.56,0,4.267,1.707,4.267,4.267V396.8
	C230.4,399.36,228.693,401.067,226.133,401.067z M196.267,392.533h25.6v-25.6h-25.6V392.533z M140.8,401.067h-34.133
	c-2.56,0-4.267-1.707-4.267-4.267v-34.133c0-2.56,1.707-4.267,4.267-4.267H140.8c2.56,0,4.267,1.707,4.267,4.267V396.8
	C145.067,399.36,143.36,401.067,140.8,401.067z M110.933,392.533h25.6v-25.6h-25.6V392.533z M499.2,324.267
	c-2.56,0-4.267-1.707-4.267-4.267V55.467c0-14.507-15.36-29.867-29.867-29.867h-34.133c-2.56,0-4.267-1.707-4.267-4.267
	s1.707-4.267,4.267-4.267h34.133c19.627,0,38.4,18.773,38.4,38.4V320C503.467,322.56,501.76,324.267,499.2,324.267z
	 M311.467,315.733h-34.133c-2.56,0-4.267-1.707-4.267-4.267v-34.133c0-2.56,1.707-4.267,4.267-4.267h34.133
	c2.56,0,4.267,1.707,4.267,4.267v34.133C315.733,314.027,314.027,315.733,311.467,315.733z M281.6,307.2h25.6v-25.6h-25.6V307.2z
	 M226.133,315.733H192c-2.56,0-4.267-1.707-4.267-4.267v-34.133c0-2.56,1.707-4.267,4.267-4.267h34.133
	c2.56,0,4.267,1.707,4.267,4.267v34.133C230.4,314.027,228.693,315.733,226.133,315.733z M196.267,307.2h25.6v-25.6h-25.6V307.2z
	 M140.8,315.733h-34.133c-2.56,0-4.267-1.707-4.267-4.267v-34.133c0-2.56,1.707-4.267,4.267-4.267H140.8
	c2.56,0,4.267,1.707,4.267,4.267v34.133C145.067,314.027,143.36,315.733,140.8,315.733z M110.933,307.2h25.6v-25.6h-25.6V307.2z
	 M396.8,298.667c-2.56,0-4.267-1.707-4.267-4.267v-12.8h-25.6v12.8c0,2.56-1.707,4.267-4.267,4.267s-4.267-1.707-4.267-4.267
	v-17.067c0-2.56,1.707-4.267,4.267-4.267H396.8c2.56,0,4.267,1.707,4.267,4.267V294.4C401.067,296.96,399.36,298.667,396.8,298.667z
	 M396.8,230.4h-34.133c-2.56,0-4.267-1.707-4.267-4.267V192c0-2.56,1.707-4.267,4.267-4.267H396.8c2.56,0,4.267,1.707,4.267,4.267
	v34.133C401.067,228.693,399.36,230.4,396.8,230.4z M366.933,221.867h25.6v-25.6h-25.6V221.867z M311.467,230.4h-34.133
	c-2.56,0-4.267-1.707-4.267-4.267V192c0-2.56,1.707-4.267,4.267-4.267h34.133c2.56,0,4.267,1.707,4.267,4.267v34.133
	C315.733,228.693,314.027,230.4,311.467,230.4z M281.6,221.867h25.6v-25.6h-25.6V221.867z M226.133,230.4H192
	c-2.56,0-4.267-1.707-4.267-4.267V192c0-2.56,1.707-4.267,4.267-4.267h34.133c2.56,0,4.267,1.707,4.267,4.267v34.133
	C230.4,228.693,228.693,230.4,226.133,230.4z M196.267,221.867h25.6v-25.6h-25.6V221.867z M140.8,230.4h-34.133
	c-2.56,0-4.267-1.707-4.267-4.267V192c0-2.56,1.707-4.267,4.267-4.267H140.8c2.56,0,4.267,1.707,4.267,4.267v34.133
	C145.067,228.693,143.36,230.4,140.8,230.4z M110.933,221.867h25.6v-25.6h-25.6V221.867z M379.733,76.8
	c-11.947,0-21.333-9.387-21.333-21.333V21.333C358.4,9.387,367.787,0,379.733,0c11.947,0,21.333,9.387,21.333,21.333v34.133
	C401.067,67.413,391.68,76.8,379.733,76.8z M379.733,8.533c-6.827,0-12.8,5.973-12.8,12.8v34.133c0,6.827,5.973,12.8,12.8,12.8
	c6.827,0,12.8-5.973,12.8-12.8V21.333C392.533,14.507,386.56,8.533,379.733,8.533z M294.4,76.8
	c-11.947,0-21.333-9.387-21.333-21.333V21.333C273.067,9.387,282.453,0,294.4,0c11.947,0,21.333,9.387,21.333,21.333v34.133
	C315.733,67.413,306.347,76.8,294.4,76.8z M294.4,8.533c-6.827,0-12.8,5.973-12.8,12.8v34.133c0,6.827,5.973,12.8,12.8,12.8
	s12.8-5.973,12.8-12.8V21.333C307.2,14.507,301.227,8.533,294.4,8.533z M209.067,76.8c-11.947,0-21.333-9.387-21.333-21.333V21.333
	C187.733,9.387,197.12,0,209.067,0C221.013,0,230.4,9.387,230.4,21.333v34.133C230.4,67.413,221.013,76.8,209.067,76.8z
	 M209.067,8.533c-6.827,0-12.8,5.973-12.8,12.8v34.133c0,6.827,5.973,12.8,12.8,12.8s12.8-5.973,12.8-12.8V21.333
	C221.867,14.507,215.893,8.533,209.067,8.533z M123.733,76.8c-11.947,0-21.333-9.387-21.333-21.333V21.333
	C102.4,9.387,111.787,0,123.733,0c11.947,0,21.333,9.387,21.333,21.333v34.133C145.067,67.413,135.68,76.8,123.733,76.8z
	 M123.733,8.533c-6.827,0-12.8,5.973-12.8,12.8v34.133c0,6.827,5.973,12.8,12.8,12.8c6.827,0,12.8-5.973,12.8-12.8V21.333
	C136.533,14.507,130.56,8.533,123.733,8.533z M4.267,76.8C1.707,76.8,0,75.093,0,72.533V55.467c0-19.627,18.773-38.4,38.4-38.4
	h34.133c2.56,0,4.267,1.707,4.267,4.267S75.093,25.6,72.533,25.6H38.4c-14.507,0-29.867,15.36-29.867,29.867v17.067
	C8.533,75.093,6.827,76.8,4.267,76.8z"/>
<g>
</g>
<g>
</g>
<g>
</g>
<g>
</g>
<g>
</g>
<g>
</g>
<g>
</g>
<g>
</g>
<g>
</g>
<g>
</g>
<g>
</g>
<g>
</g>
<g>
</g>
<g>
</g>
<g>
</g>
</svg>
