<?xml version="1.0" encoding="iso-8859-1"?>
<!-- Generator: Adobe Illustrator 19.0.0, SVG Export Plug-In . SVG Version: 6.00 Build 0)  -->
<svg version="1.1" id="Layer_1" xmlns="http://www.w3.org/2000/svg" xmlns:xlink="http://www.w3.org/1999/xlink" x="0px" y="0px"
	 viewBox="0 0 503.467 503.467" style="enable-background:new 0 0 503.467 503.467;" xml:space="preserve">
<g transform="translate(1 1)">
	<path style="fill:#AAB1BA;" d="M428.227,380.44l-47.787,47.787l-0.853,0.853l-68.267-68.267
		c18.773-12.8,34.987-29.013,47.787-47.787l0.853,0.853L428.227,380.44z"/>
	<path style="fill:#80D6FA;" d="M487.96,440.173c13.653,13.653,13.653,34.987,0,48.64s-34.987,13.653-48.64,0l-59.733-59.733
		l0.853-0.853l47.787-47.787l0.853,0.853L487.96,440.173z M312.173,359.96c-31.573,22.187-70.827,35.84-112.64,35.84
		C91.16,395.8,3.267,307.907,3.267,199.533S91.16,3.267,199.533,3.267C307.907,3.267,395.8,91.16,395.8,199.533
		c0,41.813-13.653,81.067-35.84,112.64C347.16,330.947,330.947,347.16,312.173,359.96z"/>
	<path style="fill:#ECF4F7;" d="M199.533,37.4c89.6,0,162.133,72.533,162.133,162.133s-72.533,162.133-162.133,162.133
		S37.4,289.133,37.4,199.533S109.933,37.4,199.533,37.4"/>
</g>
<path style="fill:#51565F;" d="M465.067,503.467c-10.24,0-19.627-4.267-27.307-11.093L337.067,390.827
	c-1.707-1.707-1.707-4.267,0-5.973c1.707-1.707,4.267-1.707,5.973,0L443.733,486.4c5.973,5.973,12.8,8.533,21.333,8.533l0,0
	c7.68,0,15.36-3.413,21.333-8.533c5.973-5.973,8.533-12.8,8.533-21.333c0-8.533-3.413-15.36-8.533-21.333l-57.173-57.173
	l-21.333,21.333c-1.707,1.707-4.267,1.707-5.973,0c-1.707-1.707-1.707-4.267,0-5.973l23.893-23.893
	c0.853-0.853,1.707-0.853,3.413-0.853l0,0c0.853,0,2.56,0.853,3.413,0.853l59.733,59.733c7.68,6.827,11.093,17.067,11.093,27.307
	c0,10.24-4.267,19.627-11.093,27.307C484.693,499.2,475.307,503.467,465.067,503.467L465.067,503.467z M200.533,401.067
	C89.6,401.067,0,311.467,0,200.533S89.6,0,200.533,0s200.533,89.6,200.533,200.533S311.467,401.067,200.533,401.067z M200.533,8.533
	c-105.813,0-192,86.187-192,192s86.187,192,192,192s192-86.187,192-192S306.347,8.533,200.533,8.533z M200.533,366.933
	c-92.16,0-166.4-74.24-166.4-166.4s74.24-166.4,166.4-166.4c92.16,0,166.4,74.24,166.4,166.4S292.693,366.933,200.533,366.933z
	 M200.533,42.667c-87.04,0-157.867,70.827-157.867,157.867S113.493,358.4,200.533,358.4S358.4,287.573,358.4,200.533
	S287.573,42.667,200.533,42.667z M406.187,361.813c-0.853,0-2.56,0-3.413-0.853l-17.92-17.92C384,342.186,384,341.333,384,339.627
	s0-2.56,0.853-3.413c1.707-1.707,4.267-1.707,5.973,0l17.92,17.92c0.853,0.853,0.853,1.707,0.853,3.413s0,2.56-0.853,3.413
	C407.893,361.813,407.04,361.813,406.187,361.813z M260.267,281.6h-34.133c-2.56,0-4.267-1.707-4.267-4.267s1.707-4.267,4.267-4.267
	h34.133c2.56,0,4.267,1.707,4.267,4.267S262.827,281.6,260.267,281.6z M192,281.6h-68.267c-2.56,0-4.267-1.707-4.267-4.267
	s1.707-4.267,4.267-4.267H192c2.56,0,4.267,1.707,4.267,4.267S194.56,281.6,192,281.6z M294.4,230.4H192
	c-2.56,0-4.267-1.707-4.267-4.267s1.707-4.267,4.267-4.267h102.4c2.56,0,4.267,1.707,4.267,4.267S296.96,230.4,294.4,230.4z
	 M157.867,230.4h-51.2c-2.56,0-4.267-1.707-4.267-4.267s1.707-4.267,4.267-4.267h51.2c2.56,0,4.267,1.707,4.267,4.267
	S160.427,230.4,157.867,230.4z M294.4,179.2h-34.133c-2.56,0-4.267-1.707-4.267-4.267c0-2.56,1.707-4.267,4.267-4.267H294.4
	c2.56,0,4.267,1.707,4.267,4.267C298.667,177.493,296.96,179.2,294.4,179.2z M226.133,179.2H106.667
	c-2.56,0-4.267-1.707-4.267-4.267c0-2.56,1.707-4.267,4.267-4.267h119.467c2.56,0,4.267,1.707,4.267,4.267
	C230.4,177.493,228.693,179.2,226.133,179.2z M243.2,128H140.8c-2.56,0-4.267-1.707-4.267-4.267c0-2.56,1.707-4.267,4.267-4.267
	h102.4c2.56,0,4.267,1.707,4.267,4.267C247.467,126.293,245.76,128,243.2,128z"/>
<g>
</g>
<g>
</g>
<g>
</g>
<g>
</g>
<g>
</g>
<g>
</g>
<g>
</g>
<g>
</g>
<g>
</g>
<g>
</g>
<g>
</g>
<g>
</g>
<g>
</g>
<g>
</g>
<g>
</g>
</svg>
