<?xml version="1.0" encoding="iso-8859-1"?>
<!-- Generator: Adobe Illustrator 19.0.0, SVG Export Plug-In . SVG Version: 6.00 Build 0)  -->
<svg version="1.1" id="Capa_1" xmlns="http://www.w3.org/2000/svg" xmlns:xlink="http://www.w3.org/1999/xlink" x="0px" y="0px"
	 viewBox="0 0 470 470" style="enable-background:new 0 0 470 470;" xml:space="preserve">
<g>
	<path style="fill:#082947;" d="M151.25,392c-4.143,0-7.5,3.358-7.5,7.5V422c0,4.142,3.357,7.5,7.5,7.5s7.5-3.358,7.5-7.5v-22.5
		C158.75,395.358,155.393,392,151.25,392z"/>
	<path style="fill:#082947;" d="M318.75,392c-4.143,0-7.5,3.358-7.5,7.5v30c0,4.142,3.357,7.5,7.5,7.5s7.5-3.358,7.5-7.5v-30
		C326.25,395.358,322.893,392,318.75,392z"/>
	<path style="fill:#082947;" d="M27.5,142h103.75c4.143,0,7.5-3.358,7.5-7.5s-3.357-7.5-7.5-7.5H27.5c-4.143,0-7.5,3.358-7.5,7.5
		S23.357,142,27.5,142z"/>
	<path style="fill:#082947;" d="M27.5,112h103.75c4.143,0,7.5-3.358,7.5-7.5s-3.357-7.5-7.5-7.5H27.5c-4.143,0-7.5,3.358-7.5,7.5
		S23.357,112,27.5,112z"/>
	<rect x="370" y="112" style="fill:#F2484B;" width="25" height="45"/>
	<path style="fill:#FF6E1D;" d="M45,362h380V202H45V362z M67.5,217h253.125c4.143,0,7.5,3.358,7.5,7.5h15c0-4.142,3.357-7.5,7.5-7.5
		H402.5c4.143,0,7.5,3.358,7.5,7.5v115c0,4.142-3.357,7.5-7.5,7.5h-335c-4.143,0-7.5-3.358-7.5-7.5v-115
		C60,220.358,63.357,217,67.5,217z"/>
	<path style="fill:#FFCC75;" d="M320.625,232H75v100h320V232h-44.375c-4.143,0-7.5-3.358-7.5-7.5h-15
		C328.125,228.642,324.768,232,320.625,232z"/>
	<rect x="15" y="172" style="fill:#FFCC75;" width="440" height="15"/>
	<path style="fill:#6DA8D6;" d="M306.933,141.976c-0.206,0.016-0.41,0.025-0.611,0.025c-3.869,0-7.151-2.974-7.468-6.898
		l-5.168-64.097C292.68,58.535,281.261,48,268.75,48h-67.5c-12.511,0-23.93,10.535-24.937,23.006l-5.168,64.097
		c-0.333,4.129-3.953,7.202-8.078,6.873L161.855,157h146.29L306.933,141.976z"/>
	<path style="fill:#082947;" d="M67.5,347h335c4.143,0,7.5-3.358,7.5-7.5v-115c0-4.142-3.357-7.5-7.5-7.5h-51.875
		c-4.143,0-7.5,3.358-7.5,7.5s3.357,7.5,7.5,7.5H395v100H75V232h245.625c4.143,0,7.5-3.358,7.5-7.5s-3.357-7.5-7.5-7.5H67.5
		c-4.143,0-7.5,3.358-7.5,7.5v115C60,343.642,63.357,347,67.5,347z"/>
	<path style="fill:#082947;" d="M171.146,135.103l5.168-64.097C177.32,58.535,188.739,48,201.25,48h67.5
		c12.511,0,23.93,10.535,24.937,23.006l5.168,64.097c0.316,3.924,3.599,6.898,7.468,6.898c0.201,0,0.405-0.008,0.61-0.025
		c4.129-0.333,7.206-3.95,6.873-8.079L308.638,69.8C307,49.508,289.106,33,268.75,33h-67.5c-20.356,0-38.25,16.508-39.888,36.8
		l-5.168,64.097c-0.333,4.128,2.744,7.745,6.873,8.079C167.192,142.304,170.813,139.231,171.146,135.103z"/>
	<path style="fill:#082947;" d="M462.5,157H410v-52.5c0-4.142-3.357-7.5-7.5-7.5H390V74.5c0-4.142-3.357-7.5-7.5-7.5
		s-7.5,3.358-7.5,7.5V97h-12.5c-4.143,0-7.5,3.358-7.5,7.5V157H7.5c-4.143,0-7.5,3.358-7.5,7.5v30c0,4.142,3.357,7.5,7.5,7.5H30
		v227.5c0,4.142,3.357,7.5,7.5,7.5s7.5-3.358,7.5-7.5V377h380v52.5c0,4.142,3.357,7.5,7.5,7.5s7.5-3.358,7.5-7.5V202h22.5
		c4.143,0,7.5-3.358,7.5-7.5v-30C470,160.358,466.643,157,462.5,157z M455,187H15v-15h440V187z M425,362H45V202h380V362z M395,112
		v45h-25v-45H395z"/>
</g>
<g>
</g>
<g>
</g>
<g>
</g>
<g>
</g>
<g>
</g>
<g>
</g>
<g>
</g>
<g>
</g>
<g>
</g>
<g>
</g>
<g>
</g>
<g>
</g>
<g>
</g>
<g>
</g>
<g>
</g>
</svg>
