<?xml version="1.0" encoding="iso-8859-1"?>
<!-- Generator: Adobe Illustrator 19.0.0, SVG Export Plug-In . SVG Version: 6.00 Build 0)  -->
<svg version="1.1" id="Layer_1" xmlns="http://www.w3.org/2000/svg" xmlns:xlink="http://www.w3.org/1999/xlink" x="0px" y="0px"
	 viewBox="0 0 503.467 503.467" style="enable-background:new 0 0 503.467 503.467;" xml:space="preserve">
<g transform="translate(3 1)">
	<path style="fill:#FFD0A1;" d="M52.467,497.773H86.6V327.107H52.467V497.773z M479.133,275.907v51.2H445h-34.133H342.6H154.867
		H86.6H52.467H18.333v-51.2h85.333H137.8h221.867H393.8H479.133z M410.867,497.773H445V327.107h-34.133V497.773z"/>
	<path style="fill:#AAB1BA;" d="M342.6,327.107v34.133h-93.867h-93.867v-34.133H342.6z M359.667,207.64v68.267H137.8V207.64
		l8.533-170.667c2.56-18.773,15.36-34.133,34.133-34.133H317c18.773,0,32.427,15.36,34.133,34.133L359.667,207.64z"/>
	<path style="fill:#ECF4F7;" d="M308.467,480.707c0-9.387,7.68-17.067,17.067-17.067s17.067,7.68,17.067,17.067
		s-7.68,17.067-17.067,17.067S308.467,490.093,308.467,480.707z M154.867,480.707c0-9.387,7.68-17.067,17.067-17.067
		c9.387,0,17.067,7.68,17.067,17.067s-7.68,17.067-17.067,17.067C162.547,497.773,154.867,490.093,154.867,480.707z M248.733,463.64
		c9.387,0,17.067,7.68,17.067,17.067s-7.68,17.067-17.067,17.067c-9.387,0-17.067-7.68-17.067-17.067S239.347,463.64,248.733,463.64
		z"/>
	<g>
		<path style="fill:#AAB1BA;" d="M393.8,207.64v68.267h-34.133V207.64c0-9.387,7.68-17.067,17.067-17.067
			C386.12,190.573,393.8,198.253,393.8,207.64"/>
		<path style="fill:#AAB1BA;" d="M120.733,190.573c9.387,0,17.067,7.68,17.067,17.067v68.267h-34.133V207.64
			C103.667,198.253,111.347,190.573,120.733,190.573"/>
	</g>
	<path style="fill:#F2EDDA;" d="M282.867,233.24c5.12,0,8.533-3.413,8.533-8.533s-3.413-8.533-8.533-8.533
		c-5.12,0-8.533,3.413-8.533,8.533S277.747,233.24,282.867,233.24z M214.6,233.24c5.12,0,8.533-3.413,8.533-8.533
		s-3.413-8.533-8.533-8.533c-5.12,0-8.533,3.413-8.533,8.533S209.48,233.24,214.6,233.24z M214.6,164.973
		c5.12,0,8.533-3.413,8.533-8.533c0-5.12-3.413-8.533-8.533-8.533c-5.12,0-8.533,3.413-8.533,8.533
		C206.067,161.56,209.48,164.973,214.6,164.973z M282.867,164.973c5.12,0,8.533-3.413,8.533-8.533c0-5.12-3.413-8.533-8.533-8.533
		c-5.12,0-8.533,3.413-8.533,8.533C274.333,161.56,277.747,164.973,282.867,164.973z M282.867,96.707
		c5.12,0,8.533-3.413,8.533-8.533c0-5.12-3.413-8.533-8.533-8.533c-5.12,0-8.533,3.413-8.533,8.533
		C274.333,93.293,277.747,96.707,282.867,96.707z M214.6,96.707c5.12,0,8.533-3.413,8.533-8.533c0-5.12-3.413-8.533-8.533-8.533
		c-5.12,0-8.533,3.413-8.533,8.533C206.067,93.293,209.48,96.707,214.6,96.707z"/>
</g>
<path style="fill:#51565F;" d="M448,503.04h-34.133c-2.56,0-4.267-1.707-4.267-4.267v-166.4h-320c-2.56,0-4.267-1.707-4.267-4.267
	s1.707-4.267,4.267-4.267h324.267c2.56,0,4.267,1.707,4.267,4.267v166.4h25.6V362.24c0-2.56,1.707-4.267,4.267-4.267
	s4.267,1.707,4.267,4.267v136.533C452.267,501.333,450.56,503.04,448,503.04z M328.533,503.04c-11.947,0-21.333-9.387-21.333-21.333
	c0-4.267,1.707-8.533,3.413-11.947L256,415.147v45.227c9.387,1.707,17.067,10.24,17.067,21.333c0,11.947-9.387,21.333-21.333,21.333
	c-11.947,0-21.333-9.387-21.333-21.333c0-10.24,7.68-18.773,17.067-21.333v-45.227l-54.613,54.613
	c2.56,3.413,3.413,7.68,3.413,11.947c0,11.947-9.387,21.333-21.333,21.333c-11.947,0-21.333-9.387-21.333-21.333
	s9.387-21.333,21.333-21.333c4.267,0,8.533,1.707,11.947,3.413l60.587-60.587v-36.693h-89.6c-2.56,0-4.267-1.707-4.267-4.267
	s1.707-4.267,4.267-4.267H345.6c2.56,0,4.267,1.707,4.267,4.267s-1.707,4.267-4.267,4.267H256V403.2l60.587,60.587
	c3.413-2.56,7.68-3.413,11.947-3.413c11.947,0,21.333,9.387,21.333,21.333S340.48,503.04,328.533,503.04z M328.533,468.907
	c-6.827,0-12.8,5.973-12.8,12.8s5.973,12.8,12.8,12.8s12.8-5.973,12.8-12.8S335.36,468.907,328.533,468.907z M251.733,468.907
	c-6.827,0-12.8,5.973-12.8,12.8s5.973,12.8,12.8,12.8c6.827,0,12.8-5.973,12.8-12.8S258.56,468.907,251.733,468.907z
	 M174.933,468.907c-6.827,0-12.8,5.973-12.8,12.8s5.973,12.8,12.8,12.8c6.827,0,12.8-5.973,12.8-12.8
	S181.76,468.907,174.933,468.907z M89.6,503.04H55.467c-2.56,0-4.267-1.707-4.267-4.267v-166.4H21.333
	c-2.56,0-4.267-1.707-4.267-4.267v-46.933h-12.8c-2.56,0-4.267-1.707-4.267-4.267c0-2.56,1.707-4.267,4.267-4.267H499.2
	c2.56,0,4.267,1.707,4.267,4.267c0,2.56-1.707,4.267-4.267,4.267h-12.8v46.933c0,2.56-1.707,4.267-4.267,4.267H448
	c-2.56,0-4.267-1.707-4.267-4.267s1.707-4.267,4.267-4.267h29.867v-42.667H25.6v42.667h29.867c2.56,0,4.267,1.707,4.267,4.267v166.4
	h25.6V362.24c0-2.56,1.707-4.267,4.267-4.267c2.56,0,4.267,1.707,4.267,4.267v136.533C93.867,501.333,92.16,503.04,89.6,503.04z
	 M396.8,247.04c-2.56,0-4.267-1.707-4.267-4.267V208.64c0-6.827-5.973-12.8-12.8-12.8c-6.827,0-12.8,5.973-12.8,12.8v34.133
	c0,2.56-1.707,4.267-4.267,4.267s-4.267-1.707-4.267-4.267V208.64l-8.533-170.667C348.16,23.467,337.92,8.107,320,8.107H183.467
	c-15.36,0-28.16,12.8-29.867,30.72l-8.533,170.667v34.133c0,2.56-1.707,4.267-4.267,4.267c-2.56,0-4.267-1.707-4.267-4.267v-34.133
	c0-6.827-5.973-12.8-12.8-12.8c-6.827,0-12.8,5.973-12.8,12.8v34.133c0,2.56-1.707,4.267-4.267,4.267s-4.267-1.707-4.267-4.267
	v-34.133c0-11.947,9.387-21.333,21.333-21.333c5.12,0,10.24,1.707,13.653,5.12l7.68-154.453c2.56-22.187,18.773-38.4,38.4-38.4H320
	c19.627,0,35.84,16.213,38.4,37.547l7.68,154.453c3.413-3.413,8.533-5.12,13.653-5.12c11.947,0,21.333,9.387,21.333,21.333v34.133
	C401.067,245.333,399.36,247.04,396.8,247.04z M285.867,238.507c-6.827,0-12.8-5.973-12.8-12.8c0-6.827,5.973-12.8,12.8-12.8
	c6.827,0,12.8,5.973,12.8,12.8C298.667,232.533,292.693,238.507,285.867,238.507z M285.867,221.44c-2.56,0-4.267,1.707-4.267,4.267
	c0,2.56,1.707,4.267,4.267,4.267s4.267-1.707,4.267-4.267C290.133,223.147,288.427,221.44,285.867,221.44z M217.6,238.507
	c-6.827,0-12.8-5.973-12.8-12.8c0-6.827,5.973-12.8,12.8-12.8c6.827,0,12.8,5.973,12.8,12.8
	C230.4,232.533,224.427,238.507,217.6,238.507z M217.6,221.44c-2.56,0-4.267,1.707-4.267,4.267c0,2.56,1.707,4.267,4.267,4.267
	s4.267-1.707,4.267-4.267C221.867,223.147,220.16,221.44,217.6,221.44z M285.867,170.24c-6.827,0-12.8-5.973-12.8-12.8
	c0-6.827,5.973-12.8,12.8-12.8c6.827,0,12.8,5.973,12.8,12.8C298.667,164.267,292.693,170.24,285.867,170.24z M285.867,153.173
	c-2.56,0-4.267,1.707-4.267,4.267c0,2.56,1.707,4.267,4.267,4.267s4.267-1.707,4.267-4.267
	C290.133,154.88,288.427,153.173,285.867,153.173z M217.6,170.24c-6.827,0-12.8-5.973-12.8-12.8c0-6.827,5.973-12.8,12.8-12.8
	c6.827,0,12.8,5.973,12.8,12.8C230.4,164.267,224.427,170.24,217.6,170.24z M217.6,153.173c-2.56,0-4.267,1.707-4.267,4.267
	c0,2.56,1.707,4.267,4.267,4.267s4.267-1.707,4.267-4.267C221.867,154.88,220.16,153.173,217.6,153.173z M285.867,101.973
	c-6.827,0-12.8-5.973-12.8-12.8c0-6.827,5.973-12.8,12.8-12.8c6.827,0,12.8,5.973,12.8,12.8
	C298.667,96,292.693,101.973,285.867,101.973z M285.867,84.907c-2.56,0-4.267,1.707-4.267,4.267c0,2.56,1.707,4.267,4.267,4.267
	s4.267-1.707,4.267-4.267C290.133,86.613,288.427,84.907,285.867,84.907z M217.6,101.973c-6.827,0-12.8-5.973-12.8-12.8
	c0-6.827,5.973-12.8,12.8-12.8c6.827,0,12.8,5.973,12.8,12.8C230.4,96,224.427,101.973,217.6,101.973z M217.6,84.907
	c-2.56,0-4.267,1.707-4.267,4.267c0,2.56,1.707,4.267,4.267,4.267s4.267-1.707,4.267-4.267
	C221.867,86.613,220.16,84.907,217.6,84.907z"/>
<g>
</g>
<g>
</g>
<g>
</g>
<g>
</g>
<g>
</g>
<g>
</g>
<g>
</g>
<g>
</g>
<g>
</g>
<g>
</g>
<g>
</g>
<g>
</g>
<g>
</g>
<g>
</g>
<g>
</g>
</svg>
