<svg height="511pt" viewBox="0 0 511.99982 511" width="511pt" xmlns="http://www.w3.org/2000/svg"><path d="m219.726562 271.425781-169.800781 61.390625-22.652343-62.652344 169.800781-61.390624zm0 0" fill="#e6e6e6"/><path d="m205.847656 233.03125-169.800781 61.390625-8.769531-24.257813 169.796875-61.390624zm0 0" fill="#ccc"/><path d="m491.320312 248.414062c-10.242187 3.703126-21.546874-1.570312-25.289062-11.792968l-45.714844-126.429688-11.597656-32.082031c-.804688-2.222656-1.1875-4.492187-1.1875-6.722656 0-8.09375 5.007812-15.699219 13.070312-18.609375 10.273438-3.710938 21.617188 1.601562 25.332032 11.886718l23.199218 64.167969 34.070313 94.253907c3.710937 10.269531-1.601563 21.617187-11.882813 25.328124zm0 0" fill="#4884b5"/><path d="m491.320312 248.414062c-10.242187 3.703126-21.546874-1.570312-25.289062-11.792968l-45.714844-126.429688c-.800781-2.21875-1.183594-4.492187-1.183594-6.722656 0-8.101562 5.007813-15.695312 13.058594-18.605469 10.28125-3.710937 21.621094 1.601563 25.339844 11.882813l11.601562 32.085937 34.070313 94.253907c3.710937 10.269531-1.601563 21.617187-11.882813 25.328124zm0 0" fill="#6198ce"/><path d="m59.171875 354.25c-10.285156 3.722656-21.621094-1.601562-25.332031-11.875l-17.796875-49.222656-7.257813-20.074219c-.804687-2.222656-1.1875-4.492187-1.1875-6.726563 0-8.089843 5.007813-15.683593 13.070313-18.605468 10.273437-3.710938 21.617187 1.601562 25.332031 11.882812l7.257812 20.078125 7.261719 20.078125 10.523438 29.132813c3.722656 10.28125-1.601563 21.621093-11.871094 25.332031zm0 0" fill="#4884b5"/><path d="m59.171875 354.25c-10.285156 3.722656-21.621094-1.601562-25.332031-11.875l-17.796875-49.222656c-.800781-2.21875-1.183594-4.492188-1.183594-6.722656 0-8.089844 5.007813-15.6875 13.070313-18.605469 10.269531-3.710938 21.609374 1.601562 25.328124 11.882812l7.261719 20.078125 10.523438 29.132813c3.722656 10.28125-1.601563 21.621093-11.871094 25.332031zm0 0" fill="#6198ce"/><path d="m332.441406 461.441406h-136.507812l32.671875-70.757812 9.90625-21.445313 51.351562.007813 9.90625 21.457031zm0 0" fill="#e6e6e6"/><path d="m205.839844 295.082031c-.292969-.660156-.566406-1.351562-.820313-2.039062l-33.078125-91.496094c-6.449218-17.835937 2.789063-37.507813 20.613282-43.957031l216.589843-78.304688 56.417969 156.070313-145.753906 52.699219" fill="#e6e6e6"/><path d="m424.65625 122.199219-216.585938 78.304687c-17.828124 6.449219-27.0625 26.121094-20.613281 43.957032l-15.515625-42.914063c-6.449218-17.835937 2.789063-37.507813 20.613282-43.957031l216.589843-78.304688zm0 0" fill="#ccc"/><path d="m325.417969 313.65625c0 33.816406-27.414063 61.230469-61.234375 61.230469-33.816406 0-61.230469-27.414063-61.230469-61.230469s27.414063-61.230469 61.230469-61.230469c33.820312 0 61.234375 27.414063 61.234375 61.230469zm0 0" fill="#6198ce"/><path d="m299.769531 390.703125c-4.441406 3.164063-9.378906 5.789063-14.765625 7.738281-19.660156 7.097656-40.582031 3.527344-56.398437-7.757812l9.90625-21.445313 51.351562.007813zm0 0" fill="#ccc"/><path d="m292.847656 313.65625c0 15.828125-12.832031 28.660156-28.664062 28.660156-15.828125 0-28.660156-12.832031-28.660156-28.660156 0-15.832031 12.832031-28.664062 28.660156-28.664062 15.832031 0 28.664062 12.832031 28.664062 28.664062zm0 0" fill="#e6e6e6"/><path d="m390.699219 482.6875c0 5.859375-2.382813 11.171875-6.226563 15.015625s-9.15625 6.226563-15.019531 6.226563h-210.53125c-11.734375 0-21.246094-9.511719-21.246094-21.242188 0-5.863281 2.382813-11.175781 6.226563-15.019531s9.15625-6.226563 15.019531-6.226563h210.53125c11.734375 0 21.246094 9.511719 21.246094 21.246094zm0 0" fill="#4884b5"/><path d="m390.699219 482.6875c0 5.859375-2.382813 11.171875-6.226563 15.015625s-9.15625 6.226563-15.019531 6.226563h-174.039063c-11.730468 0-21.230468-9.511719-21.230468-21.242188 0-5.863281 2.371094-11.175781 6.214844-15.019531s9.144531-6.226563 15.015624-6.226563h174.039063c11.734375 0 21.246094 9.511719 21.246094 21.246094zm0 0" fill="#6198ce"/><g fill="#f7d360"><path d="m60.917969 106.859375 8.582031 17.390625c1.089844 2.203125 3.191406 3.734375 5.625 4.085938l19.195312 2.789062c6.128907.890625 8.574219 8.421875 4.140626 12.742188l-13.890626 13.539062c-1.757812 1.714844-2.5625 4.1875-2.148437 6.613281l3.277344 19.117188c1.046875 6.101562-5.359375 10.753906-10.839844 7.875l-17.167969-9.027344c-2.175781-1.144531-4.773437-1.144531-6.953125 0l-17.164062 9.027344c-5.484375 2.878906-11.886719-1.773438-10.84375-7.875l3.28125-19.117188c.414062-2.425781-.386719-4.898437-2.148438-6.613281l-13.886719-13.539062c-4.4375-4.320313-1.988281-11.851563 4.136719-12.742188l19.195313-2.789062c2.433594-.351563 4.539062-1.878907 5.625-4.085938l8.585937-17.390625c2.738281-5.554687 10.65625-5.554687 13.398438 0zm0 0"/><path d="m430.5625 327.113281 8.585938 17.390625c1.085937 2.207032 3.191406 3.734375 5.625 4.089844l19.195312 2.785156c6.125.890625 8.574219 8.421875 4.140625 12.742188l-13.890625 13.539062c-1.761719 1.71875-2.566406 4.191406-2.148438 6.613282l3.277344 19.117187c1.046875 6.101563-5.359375 10.757813-10.839844 7.875l-17.167968-9.027344c-2.175782-1.144531-4.773438-1.144531-6.953125 0l-17.167969 9.027344c-5.480469 2.878906-11.886719-1.773437-10.839844-7.875l3.277344-19.117187c.417969-2.421876-.386719-4.894532-2.148438-6.613282l-13.886718-13.539062c-4.433594-4.320313-1.988282-11.851563 4.140625-12.742188l19.195312-2.785156c2.433594-.355469 4.535157-1.882812 5.621094-4.089844l8.585937-17.390625c2.742188-5.554687 10.660157-5.554687 13.398438 0zm0 0"/><path d="m237.402344 12.273438 8.582031 17.390624c1.089844 2.207032 3.191406 3.734376 5.625 4.089844l19.195313 2.785156c6.128906.890626 8.574218 8.421876 4.140624 12.742188l-13.890624 13.539062c-1.757813 1.71875-2.5625 4.191407-2.148438 6.613282l3.277344 19.117187c1.046875 6.101563-5.355469 10.757813-10.839844 7.875l-17.164062-9.027343c-2.179688-1.144532-4.777344-1.144532-6.953126 0l-17.167968 9.027343c-5.480469 2.878907-11.886719-1.773437-10.839844-7.875l3.277344-19.117187c.414062-2.421875-.386719-4.894532-2.148438-6.613282l-13.886718-13.535156c-4.4375-4.324218-1.988282-11.851562 4.140624-12.742187l19.191407-2.789063c2.433593-.355468 4.539062-1.882812 5.625-4.085937l8.585937-17.394531c2.738282-5.554688 10.65625-5.554688 13.398438 0zm0 0"/></g><path d="m510.355469 220.496094-57.273438-158.421875c-5.132812-14.203125-20.863281-21.582031-35.070312-16.445313-12.144531 4.390625-19.289063 16.527344-17.898438 28.835938l-31.515625 11.390625c-3.949218 1.429687-5.992187 5.789062-4.566406 9.738281 1.429688 3.953125 5.789062 5.996094 9.738281 4.566406l30.804688-11.136718 51.25 141.765624-132.378907 47.863282c-16.488281-27.929688-51.074218-41.152344-82.660156-29.730469-14.449218 5.21875-26.082031 14.808594-33.960937 26.734375l-27.730469-76.695312c-5.007812-13.855469 2.191406-29.207032 16.050781-34.21875l149.664063-54.109376c3.953125-1.429687 5.996094-5.789062 4.566406-9.738281-1.425781-3.949219-5.789062-5.992187-9.738281-4.566406l-149.667969 54.109375c-21.746094 7.867188-33.039062 31.953125-25.179688 53.695312l2.628907 7.269532-115.9375 41.910156c-6.339844-11.722656-20.5-17.382812-33.402344-12.71875-14.203125 5.136719-21.578125 20.867188-16.445313 35.070312l25.050782 69.292969c4.027344 11.140625 14.570312 18.078125 25.785156 18.078125 3.082031 0 6.222656-.523437 9.285156-1.628906 6.878906-2.488281 12.378906-7.507812 15.488282-14.132812 2.519531-5.378907 3.21875-11.289063 2.0625-17.007813l115.933593-41.910156 2.585938 7.160156c-3.636719 13.238281-3.386719 27.675781 1.625 41.542969 5.425781 15.007812 15.652343 27.398437 29.144531 35.515625l-37.523438 81.257812h-32.152343c-15.910157 0-28.847657 12.941407-28.847657 28.847657 0 15.910156 12.941407 28.851562 28.847657 28.851562h6.074219c4.199218 0 7.605468-3.40625 7.605468-7.605469 0-4.203125-3.40625-7.605469-7.605468-7.605469h-6.074219c-7.519531 0-13.640625-6.117187-13.640625-13.640624 0-7.519532 6.121094-13.636719 13.640625-13.636719h36.96875c.015625 0 .03125.003906.046875.003906h136.507812c.015625 0 .03125-.003906.046875-.003906h36.964844c7.519531 0 13.636719 6.117187 13.636719 13.636719 0 7.523437-6.117188 13.640624-13.636719 13.640624h-174.039063c-4.199218 0-7.605468 3.402344-7.605468 7.605469 0 4.199219 3.40625 7.605469 7.605468 7.605469h174.039063c15.910156 0 28.851563-12.941406 28.851563-28.851562 0-15.90625-12.945313-28.847657-28.851563-28.847657h-32.148437l-37.527344-81.257812c26.859375-16.210938 39.824218-49.277344 29.914062-80.007813l132.007813-47.726562c5.082031 7.742187 13.78125 12.359375 22.921875 12.359375 3.085937 0 6.222656-.527344 9.285156-1.632813 6.878906-2.488281 12.378906-7.503906 15.488281-14.128906 3.105469-6.625 3.445313-14.0625.960938-20.941406zm-446.886719 120.320312c-1.378906 2.945313-3.824219 5.179688-6.886719 6.285156-6.316406 2.28125-13.3125-1-15.59375-7.3125l-25.050781-69.292968c-2.28125-6.316406.996094-13.3125 7.3125-15.597656 1.363281-.492188 2.757812-.726563 4.128906-.726563 4.988282 0 9.675782 3.089844 11.46875 8.042969l25.050782 69.289062c1.105468 3.0625.953124 6.367188-.429688 9.3125zm10.945312-24.953125-17.476562-48.347656 115.648438-41.808594 17.480468 48.347657zm133.410157 137.972657 34.578125-74.882813c7.066406 2.375 14.390625 3.574219 21.738281 3.574219 7.335937 0 14.683594-1.203125 21.820313-3.585938l34.589843 74.890625h-112.726562zm74.59375-89.75c-13.371094 4.835937-27.8125 4.207031-40.710938-1.75 0 0-.003906-.003907-.007812-.003907-.003907 0-.007813-.003906-.015625-.007812-.089844-.039063-.179688-.074219-.265625-.117188-12.96875-6.082031-22.792969-16.851562-27.664063-30.320312-10.050781-27.808594 4.394532-58.609375 32.199219-68.664063 6-2.167968 12.140625-3.195312 18.179687-3.195312 21.957032 0 42.601563 13.589844 50.484376 35.398437 10.050781 27.804688-4.394532 58.609375-32.199219 68.660157zm213.203125-129.105469c-1.378906 2.945312-3.824219 5.175781-6.886719 6.28125-6.316406 2.28125-13.3125-1-15.59375-7.3125l-57.273437-158.421875c-2.28125-6.316406 1-13.3125 7.316406-15.59375 1.359375-.496094 2.753906-.726563 4.125-.726563 4.988281 0 9.675781 3.085938 11.46875 8.039063l57.269531 158.421875c1.109375 3.058593.957031 6.367187-.425781 9.3125zm0 0"/><path d="m251.855469 279.546875c-9.109375 3.292969-16.394531 9.9375-20.507813 18.710937-4.113281 8.769532-4.5625 18.617188-1.269531 27.726563 3.292969 9.113281 9.9375 16.394531 18.707031 20.507813 4.894532 2.296874 10.125 3.449218 15.375 3.449218 4.160156 0 8.328125-.722656 12.355469-2.179687 9.109375-3.292969 16.394531-9.9375 20.507813-18.707031 4.113281-8.769532 4.5625-18.617188 1.269531-27.730469-6.800781-18.804688-27.632813-28.578125-46.4375-21.777344zm31.394531 43.050781c-2.386719 5.089844-6.613281 8.949219-11.90625 10.859375-5.289062 1.914063-11.007812 1.652344-16.097656-.738281-5.09375-2.386719-8.953125-6.613281-10.863282-11.90625-1.914062-5.289062-1.652343-11.007812.738282-16.097656 2.386718-5.09375 6.617187-8.953125 11.90625-10.863282 2.355468-.851562 4.765625-1.253906 7.136718-1.253906 8.621094 0 16.730469 5.335938 19.824219 13.898438 1.914063 5.289062 1.652344 11.007812-.738281 16.101562zm0 0"/><path d="m18.503906 162.804688-3.265625 19.046874c-.976562 5.695313 1.320313 11.347657 5.996094 14.746094 4.675781 3.394532 10.761719 3.835938 15.878906 1.144532l17.105469-8.992188 17.105469 8.992188c2.222656 1.171874 4.632812 1.75 7.027343 1.75 3.113282 0 6.207032-.976563 8.847657-2.894532 4.675781-3.398437 6.976562-9.046875 5.996093-14.746094l-3.265624-19.046874 13.839843-13.488282c4.136719-4.035156 5.597657-9.957031 3.8125-15.457031-1.785156-5.496094-6.449219-9.429687-12.167969-10.257813l-19.125-2.78125-8.550781-17.328124c-2.558593-5.183594-7.738281-8.40625-13.519531-8.40625s-10.960938 3.21875-13.519531 8.402343l-8.554688 17.332031-19.121093 2.777344c-5.722657.832032-10.386719 4.761719-12.171876 10.261719-1.785156 5.496094-.324218 11.417969 3.816407 15.453125zm15.898438-26.941407c4.914062-.714843 9.15625-3.796875 11.351562-8.246093l8.464844-17.148438 8.460938 17.148438c2.199218 4.449218 6.441406 7.53125 11.351562 8.246093l18.921875 2.75-13.691406 13.347657c-3.554688 3.464843-5.175781 8.453124-4.335938 13.34375l3.230469 18.847656-16.921875-8.898438c-2.195313-1.15625-4.605469-1.734375-7.015625-1.734375s-4.820312.578125-7.015625 1.734375l-16.925781 8.894532 3.230468-18.847657c.839844-4.890625-.78125-9.878906-4.335937-13.339843l-13.691406-13.351563zm0 0"/><path d="m465.0625 343.855469-19.125-2.78125-8.554688-17.328125c-2.554687-5.183594-7.738281-8.402344-13.515624-8.402344-5.78125 0-10.964844 3.21875-13.519532 8.402344l-8.554687 17.328125-19.121094 2.78125c-5.722656.828125-10.386719 4.761719-12.171875 10.261719-1.785156 5.496093-.324219 11.417968 3.816406 15.453124l13.835938 13.488282-3.265625 19.046875c-.976563 5.695312 1.320312 11.347656 5.996093 14.746093 2.644532 1.917969 5.734376 2.894532 8.847657 2.894532 2.394531 0 4.804687-.578125 7.03125-1.75l17.105469-8.992188 17.105468 8.992188c5.117188 2.691406 11.203125 2.25 15.875-1.148438 4.675782-3.394531 6.976563-9.046875 5.996094-14.742187l-3.265625-19.046875 13.839844-13.492188c4.136719-4.03125 5.597656-9.953125 3.8125-15.453125-1.785157-5.496093-6.449219-9.425781-12.167969-10.257812zm-16.152344 28.363281c-3.554687 3.460938-5.175781 8.449219-4.335937 13.34375l3.234375 18.847656-16.925782-8.898437c-2.199218-1.15625-4.605468-1.734375-7.015624-1.734375-2.410157 0-4.820313.578125-7.015626 1.734375l-16.925781 8.894531 3.230469-18.84375c.839844-4.894531-.78125-9.882812-4.332031-13.34375l-13.691407-13.351562 18.921876-2.75c4.910156-.710938 9.152343-3.796876 11.351562-8.246094l8.460938-17.148438 8.464843 17.148438c2.195313 4.449218 6.441407 7.535156 11.351563 8.246094l18.921875 2.75zm0 0"/><path d="m194.988281 68.21875-3.265625 19.046875c-.976562 5.699219 1.320313 11.347656 5.996094 14.746094 2.644531 1.917969 5.734375 2.894531 8.847656 2.894531 2.398438 0 4.804688-.578125 7.03125-1.75l17.105469-8.992188 17.105469 8.992188c5.117187 2.691406 11.199218 2.25 15.875-1.144531 4.675781-3.398438 6.976562-9.046875 5.996094-14.746094l-3.265626-19.046875 13.839844-13.492188c4.140625-4.035156 5.597656-9.957031 3.8125-15.453124-1.785156-5.496094-6.449218-9.429688-12.167968-10.261719l-19.125-2.777344-8.550782-17.332031c-2.558594-5.183594-7.738281-8.402344-13.519531-8.402344s-10.964844 3.21875-13.519531 8.402344l-8.554688 17.332031-19.121094 2.777344c-5.722656.832031-10.386718 4.761719-12.171874 10.261719-1.785157 5.496093-.324219 11.417968 3.8125 15.453124zm15.898438-26.941406c4.914062-.714844 9.15625-3.796875 11.351562-8.246094l8.464844-17.148438 8.460937 17.148438c2.199219 4.449219 6.441407 7.53125 11.351563 8.246094l18.925781 2.75-13.695312 13.347656c-3.550782 3.464844-5.171875 8.449219-4.335938 13.34375l3.230469 18.847656-16.921875-8.898437c-2.195312-1.152344-4.605469-1.730469-7.015625-1.730469s-4.820313.578125-7.015625 1.730469l-16.925781 8.898437 3.230469-18.847656c.835937-4.890625-.78125-9.878906-4.335938-13.34375l-13.691406-13.347656zm0 0"/></svg>