<?xml version="1.0" encoding="iso-8859-1"?>
<!-- Generator: Adobe Illustrator 19.0.0, SVG Export Plug-In . SVG Version: 6.00 Build 0)  -->
<svg version="1.1" id="Layer_1" xmlns="http://www.w3.org/2000/svg" xmlns:xlink="http://www.w3.org/1999/xlink" x="0px" y="0px"
	 viewBox="0 0 503.893 503.893" style="enable-background:new 0 0 503.893 503.893;" xml:space="preserve">
<g transform="translate(1 7)">
	<path style="fill:#AAB1BA;" d="M319.213,117.16H182.68c0-37.547,30.72-68.267,68.267-68.267S319.213,79.613,319.213,117.16z
		 M498.413,159.827V449.96c0,23.893-18.773,42.667-42.667,42.667h-409.6c-23.893,0-42.667-18.773-42.667-42.667V159.827
		c0-23.893,18.773-42.667,42.667-42.667H182.68h136.533h136.533C479.64,117.16,498.413,135.933,498.413,159.827z"/>
	<path style="fill:#FFE079;" d="M447.213,168.36c9.387,0,17.067,7.68,17.067,17.067s-7.68,17.067-17.067,17.067
		s-17.067-7.68-17.067-17.067S437.827,168.36,447.213,168.36"/>
	<path style="fill:#ECF4F7;" d="M387.48,202.493c0,0,8.533,34.133,8.533,102.4s-8.533,102.4-8.533,102.4
		c-6.827,22.187-20.48,38.4-42.667,42.667c0,0-34.133,8.533-128,8.533s-128-8.533-128-8.533
		c-23.04-5.973-36.693-19.627-42.667-42.667c0,0-8.533-34.133-8.533-102.4s8.533-102.4,8.533-102.4
		c5.973-23.04,20.48-37.547,42.667-42.667c0,0,34.133-8.533,128-8.533s128,8.533,128,8.533
		C367.853,165.8,382.36,180.307,387.48,202.493"/>
	<path style="fill:#FF7474;" d="M447.213,236.627c9.387,0,17.067,7.68,17.067,17.067c0,9.387-7.68,17.067-17.067,17.067
		s-17.067-7.68-17.067-17.067C430.147,244.307,437.827,236.627,447.213,236.627"/>
</g>
<path style="fill:#51565F;" d="M456.747,503.893h-409.6c-25.6,0-46.933-21.333-46.933-46.933V166.827
	c0-25.6,21.333-46.933,46.933-46.933h409.6c25.6,0,46.933,21.333,46.933,46.933V456.96
	C503.68,482.56,482.347,503.893,456.747,503.893z M47.147,128.427c-21.333,0-38.4,17.067-38.4,38.4V456.96
	c0,21.333,17.067,38.4,38.4,38.4h409.6c21.333,0,38.4-17.067,38.4-38.4V166.827c0-21.333-17.067-38.4-38.4-38.4H47.147z
	 M217.813,469.76c-93.013,0-128-8.533-128.853-8.533c-23.893-5.973-39.253-21.333-46.08-46.08c0-1.707-8.533-35.84-8.533-103.253
	s8.533-102.4,8.533-103.253c5.973-24.747,22.187-40.107,46.08-46.08c1.707,0,35.84-8.533,128.853-8.533s128,8.533,128.853,8.533
	c24.747,5.973,40.96,22.187,46.08,46.08c0,0.853,8.533,34.987,8.533,103.253s-8.533,102.4-8.533,103.253
	c-7.68,25.6-23.04,40.96-46.08,46.08C345.813,461.227,310.827,469.76,217.813,469.76z M217.813,162.56
	c-92.16,0-126.293,8.533-127.147,8.533c-20.48,4.267-34.133,17.92-39.253,39.253c0,0-8.533,34.133-8.533,101.547
	s8.533,100.693,8.533,101.547c5.973,21.333,18.773,34.133,39.253,39.253c0,0,34.987,8.533,127.147,8.533
	s126.293-8.533,127.147-8.533c19.627-4.267,33.28-17.067,39.253-40.107c0,0,8.533-34.133,8.533-101.547
	s-8.533-100.693-8.533-101.547c-4.267-20.48-17.92-34.133-39.253-39.253C344.107,171.093,309.973,162.56,217.813,162.56z
	 M345.813,299.093c-2.56,0-4.267-1.707-4.267-4.267v-8.533c0-2.56,1.707-4.267,4.267-4.267s4.267,1.707,4.267,4.267v8.533
	C350.08,297.387,348.373,299.093,345.813,299.093z M448.213,282.027c-11.947,0-21.333-9.387-21.333-21.333
	c0-11.947,9.387-21.333,21.333-21.333c11.947,0,21.333,9.387,21.333,21.333C469.547,272.64,460.16,282.027,448.213,282.027z
	 M448.213,247.893c-6.827,0-12.8,5.973-12.8,12.8c0,6.827,5.973,12.8,12.8,12.8s12.8-5.973,12.8-12.8
	C461.013,253.867,455.04,247.893,448.213,247.893z M345.813,256.427c-2.56,0-4.267-1.707-4.267-4.267c0-9.387-1.707-25.6-7.68-30.72
	c-5.973-5.12-22.187-7.68-30.72-7.68c-2.56,0-4.267-1.707-4.267-4.267c0-2.56,1.707-4.267,4.267-4.267s27.307,0,37.547,9.387
	c10.24,9.387,9.387,34.133,9.387,37.547C350.08,254.72,348.373,256.427,345.813,256.427L345.813,256.427z M448.213,213.76
	c-11.947,0-21.333-9.387-21.333-21.333c0-11.947,9.387-21.333,21.333-21.333c11.947,0,21.333,9.387,21.333,21.333
	C469.547,204.373,460.16,213.76,448.213,213.76z M448.213,179.627c-6.827,0-12.8,5.973-12.8,12.8c0,6.827,5.973,12.8,12.8,12.8
	s12.8-5.973,12.8-12.8C461.013,185.6,455.04,179.627,448.213,179.627z M310.827,94.293c-1.707,0-2.56-0.853-3.413-1.707
	C296.32,72.96,274.987,60.16,251.947,60.16s-43.52,11.947-55.467,32.427c-0.853,1.707-3.413,2.56-5.973,1.707
	c-1.707-0.853-2.56-3.413-1.707-5.973c3.413-5.973,7.68-11.093,12.8-16.213l-64-64c-0.853-0.853-0.853-1.707-0.853-3.413
	s0-2.56,0.853-3.413c1.707-1.707,4.267-1.707,5.973,0l64.853,64.853c11.947-9.387,27.307-14.507,43.52-14.507
	c16.213,0,30.72,5.12,43.52,14.507L360.32,1.28c1.707-1.707,4.267-1.707,5.973,0c0.853,0.853,0.853,1.707,0.853,3.413
	s0,2.56-0.853,3.413l-64,64c5.12,5.12,9.387,10.24,12.8,16.213c0.853,1.707,0.853,4.267-1.707,5.973
	C312.533,94.293,311.68,94.293,310.827,94.293z"/>
<g>
</g>
<g>
</g>
<g>
</g>
<g>
</g>
<g>
</g>
<g>
</g>
<g>
</g>
<g>
</g>
<g>
</g>
<g>
</g>
<g>
</g>
<g>
</g>
<g>
</g>
<g>
</g>
<g>
</g>
</svg>
