<svg height="511pt" viewBox="0 -51 511.99737 511" width="511pt" xmlns="http://www.w3.org/2000/svg"><path d="m486.398438 9.03125h-460.796876c-9.425781 0-17.066406 7.640625-17.066406 17.066406v290.132813c0 9.425781 7.640625 17.066406 17.066406 17.066406h460.796876c9.425781 0 17.066406-7.640625 17.066406-17.066406v-290.132813c0-9.425781-7.640625-17.066406-17.066406-17.066406zm-8.53125 298.667969h-443.734376v-273.066407h443.734376zm0 0" fill="#ff7956"/><path d="m34.132812 34.632812h443.734376v273.066407h-443.734376zm0 0" fill="#ffeb99"/><g fill="#3e3d42"><path d="m486.398438.5h-460.796876c-14.140624 0-25.601562 11.460938-25.601562 25.597656v290.132813c0 14.140625 11.460938 25.601562 25.601562 25.601562h85.332032v17.066407c-23.554688.027343-42.640625 19.113281-42.667969 42.667968 0 4.710938 3.820313 8.53125 8.535156 8.53125 4.710938 0 8.53125-3.820312 8.53125-8.53125 0-14.140625 11.460938-25.601562 25.601563-25.601562h290.132812c14.136719 0 25.597656 11.460937 25.597656 25.601562 0 4.710938 3.820313 8.53125 8.535157 8.53125 4.710937 0 8.53125-3.820312 8.53125-8.53125-.027344-23.554687-19.113281-42.640625-42.664063-42.667968v-17.066407h85.332032c14.136718 0 25.597656-11.460937 25.597656-25.601562v-290.132813c.003906-14.136718-11.457032-25.597656-25.597656-25.597656zm-102.398438 358.398438h-256v-17.066407h256zm110.933594-42.667969c0 4.714843-3.820313 8.535156-8.535156 8.535156h-460.796876c-4.714843 0-8.535156-3.820313-8.535156-8.535156v-290.132813c0-4.710937 3.820313-8.53125 8.535156-8.53125h460.796876c4.714843 0 8.535156 3.820313 8.535156 8.53125zm0 0"/><path d="m477.867188 26.097656h-443.734376c-4.710937 0-8.53125 3.820313-8.53125 8.535156v273.066407c0 4.710937 3.820313 8.53125 8.53125 8.53125h443.734376c4.710937 0 8.53125-3.820313 8.53125-8.53125v-273.066407c0-4.714843-3.820313-8.535156-8.53125-8.535156zm-8.535157 273.066406h-426.664062v-256h426.664062zm0 0"/><path d="m68.265625 128.5c2.265625-.003906 4.433594-.902344 6.035156-2.5l42.664063-42.667969c3.277344-3.390625 3.183594-8.792969-.207032-12.066406-3.308593-3.195313-8.550781-3.195313-11.859374 0l-42.664063 42.667969c-3.332031 3.332031-3.332031 8.734375 0 12.066406 1.601563 1.601562 3.769531 2.496094 6.03125 2.5zm0 0"/><path d="m68.265625 171.164062c2.265625 0 4.433594-.898437 6.035156-2.5l8.53125-8.53125c3.273438-3.390624 3.179688-8.792968-.207031-12.066406-3.308594-3.195312-8.550781-3.195312-11.859375 0l-8.53125 8.53125c-3.332031 3.335938-3.332031 8.738282 0 12.070313 1.601563 1.597656 3.769531 2.496093 6.03125 2.496093zm0 0"/><path d="m87.832031 143.066406c3.335938 3.328125 8.734375 3.328125 12.066407 0l59.734374-59.734375c3.273438-3.390625 3.179688-8.792969-.210937-12.066406-3.304687-3.195313-8.546875-3.195313-11.855469 0l-59.734375 59.734375c-3.328125 3.332031-3.328125 8.734375 0 12.066406zm0 0"/></g></svg>