<?xml version="1.0" encoding="iso-8859-1"?>
<!-- Generator: Adobe Illustrator 19.0.0, SVG Export Plug-In . SVG Version: 6.00 Build 0)  -->
<svg version="1.1" id="Layer_1" xmlns="http://www.w3.org/2000/svg" xmlns:xlink="http://www.w3.org/1999/xlink" x="0px" y="0px"
	 viewBox="0 0 503.467 503.467" style="enable-background:new 0 0 503.467 503.467;" xml:space="preserve">
<g transform="translate(1 9)">
	<path style="fill:#AAB1BA;" d="M498.2,319.533v102.4c0,18.773-15.36,34.133-34.133,34.133H37.4
		c-18.773,0-34.133-15.36-34.133-34.133v-102.4c0-18.773,15.36-34.133,34.133-34.133h213.333h213.333
		C482.84,285.4,498.2,300.76,498.2,319.533"/>
	<path style="fill:#7EE1E6;" d="M250.733,80.6c-33.28,0-63.147,13.653-84.48,34.987l35.84,35.84
		c12.8-11.947,29.867-19.627,48.64-19.627s35.84,7.68,48.64,19.627l35.84-35.84L370.2,80.6c-29.867-31.573-72.533-51.2-119.467-51.2
		s-89.6,20.48-119.467,51.2l34.987,34.987C187.587,94.254,217.453,80.6,250.733,80.6L250.733,80.6z M282.307,84.867
		c20.48,5.973,38.4,16.213,52.907,30.72L282.307,84.867z M250.733,183c9.387,0,17.067,7.68,17.067,17.067
		s-7.68,17.067-17.067,17.067c-9.387,0-17.067-7.68-17.067-17.067S241.347,183,250.733,183z"/>
	<path style="fill:#E4F2DE;" d="M344.6,353.667c9.387,0,17.067,7.68,17.067,17.067S353.987,387.8,344.6,387.8
		s-17.067-7.68-17.067-17.067S335.213,353.667,344.6,353.667"/>
	<path style="fill:#FFE079;" d="M412.867,353.667c9.387,0,17.067,7.68,17.067,17.067s-7.68,17.067-17.067,17.067
		s-17.067-7.68-17.067-17.067S403.48,353.667,412.867,353.667"/>
</g>
<path style="fill:#51565F;" d="M465.067,469.333H38.4c-21.333,0-38.4-17.067-38.4-38.4v-102.4c0-21.333,17.067-38.4,38.4-38.4
	h209.067V230.4c-9.387-1.707-17.067-10.24-17.067-21.333c0-11.947,9.387-21.333,21.333-21.333c11.947,0,21.333,9.387,21.333,21.333
	c0,10.24-7.68,18.773-17.067,21.333v64c0,2.56-1.707,4.267-4.267,4.267H38.4c-16.213,0-29.867,13.653-29.867,29.867v102.4
	c0,16.213,13.653,29.867,29.867,29.867h426.667c16.213,0,29.867-13.653,29.867-29.867v-102.4c0-16.213-13.653-29.867-29.867-29.867
	h-179.2c-2.56,0-4.267-1.707-4.267-4.267s1.707-4.267,4.267-4.267h179.2c21.333,0,38.4,17.067,38.4,38.4v102.4
	C503.467,452.267,486.4,469.333,465.067,469.333z M251.733,196.267c-6.827,0-12.8,5.973-12.8,12.8c0,6.827,5.973,12.8,12.8,12.8
	c6.827,0,12.8-5.973,12.8-12.8C264.533,202.24,258.56,196.267,251.733,196.267z M413.867,401.067
	c-11.947,0-21.333-9.387-21.333-21.333c0-11.947,9.387-21.333,21.333-21.333c11.947,0,21.333,9.387,21.333,21.333
	C435.2,391.68,425.813,401.067,413.867,401.067z M413.867,366.933c-6.827,0-12.8,5.973-12.8,12.8s5.973,12.8,12.8,12.8
	s12.8-5.973,12.8-12.8S420.693,366.933,413.867,366.933z M345.6,401.067c-11.947,0-21.333-9.387-21.333-21.333
	c0-11.947,9.387-21.333,21.333-21.333c11.947,0,21.333,9.387,21.333,21.333C366.933,391.68,357.547,401.067,345.6,401.067z
	 M345.6,366.933c-6.827,0-12.8,5.973-12.8,12.8s5.973,12.8,12.8,12.8s12.8-5.973,12.8-12.8S352.427,366.933,345.6,366.933z
	 M260.267,384H89.6c-2.56,0-4.267-1.707-4.267-4.267c0-2.56,1.707-4.267,4.267-4.267h170.667c2.56,0,4.267,1.707,4.267,4.267
	C264.533,382.293,262.827,384,260.267,384z M203.093,164.693c-0.853,0-2.56,0-3.413-0.853c-1.707-1.707-1.707-4.267,0-5.973
	c13.653-13.653,31.573-21.333,51.2-21.333s37.547,7.68,51.2,21.333c1.707,1.707,1.707,4.267,0,5.973
	c-1.707,1.707-4.267,1.707-5.973,0c-11.947-11.947-28.16-18.773-45.227-18.773s-33.28,6.827-45.227,18.773
	C205.653,164.693,204.8,164.693,203.093,164.693z M336.213,128.854c-0.853,0-2.56,0-3.413-0.853
	c-21.333-22.187-50.347-34.133-81.067-34.133S192,105.813,170.667,128c-1.707,1.707-4.267,1.707-5.973,0
	c-1.707-1.707-1.707-4.267,0-5.973c23.04-23.04,54.613-35.84,87.893-35.84c33.28,0,64,12.8,87.893,35.84
	c1.707,1.707,1.707,4.267,0,5.973C338.773,128.854,337.067,128.854,336.213,128.854z M132.267,93.867c-0.853,0-2.56,0-2.56-0.853
	c-1.707-1.707-1.707-4.267,0-5.973c32.427-34.133,75.947-52.907,122.88-52.907s90.453,18.773,122.88,52.907
	c1.707,1.707,1.707,4.267,0,5.973c-1.707,1.707-4.267,1.707-5.973,0C339.627,60.587,297.813,43.52,253.44,43.52
	c-43.52,0-85.333,17.92-116.053,49.493C134.827,93.013,133.12,93.867,132.267,93.867z"/>
<g>
</g>
<g>
</g>
<g>
</g>
<g>
</g>
<g>
</g>
<g>
</g>
<g>
</g>
<g>
</g>
<g>
</g>
<g>
</g>
<g>
</g>
<g>
</g>
<g>
</g>
<g>
</g>
<g>
</g>
</svg>
