<svg height="511pt" viewBox="0 -46 511.99951 511" width="511pt" xmlns="http://www.w3.org/2000/svg" xmlns:xlink="http://www.w3.org/1999/xlink"><linearGradient id="a"><stop offset="0" stop-color="#e93e3a"/><stop offset=".355" stop-color="#ed683c"/><stop offset=".705" stop-color="#f3903f"/><stop offset="1" stop-color="#fdc70c"/></linearGradient><linearGradient id="b" gradientTransform="matrix(.70548 0 0 -.70548 -.000195 460.987371)" gradientUnits="userSpaceOnUse" x1="362.5924" x2="362.5924" xlink:href="#a" y1="47.3476" y2="748.3229"/><linearGradient id="c" gradientTransform="matrix(.70548 0 0 -.70548 -.000195 460.987371)" gradientUnits="userSpaceOnUse" x1="362.3109" x2="362.3109" xlink:href="#a" y1="47.3476" y2="748.3229"/><linearGradient id="d" gradientTransform="matrix(.70548 0 0 -.70548 -.000195 460.987371)" gradientUnits="userSpaceOnUse" x1="363.0741" x2="363.0741" xlink:href="#a" y1="47.3476" y2="748.3229"/><linearGradient id="e" gradientTransform="matrix(.70548 0 0 -.70548 -.000195 460.987371)" gradientUnits="userSpaceOnUse" x1="362.8737" x2="362.8737" xlink:href="#a" y1="47.3476" y2="748.3229"/><path d="m210.125 310.003906c-25.234375 25.226563-25.238281 66.128906-.011719 91.363282 25.226563 25.234374 66.128907 25.242187 91.363281.015624 25.234376-25.226562 25.242188-66.132812.015626-91.367187-.003907-.003906-.007813-.007813-.015626-.011719-25.550781-24.425781-65.796874-24.425781-91.351562 0zm68.515625 68.511719c-12.777344 12.207031-32.898437 12.207031-45.675781 0-12.617188-12.613281-12.621094-33.066406-.007813-45.683594 12.613281-12.617187 33.066407-12.621093 45.683594-.007812s12.621094 33.066406.007813 45.683593c-.003907.003907-.007813.007813-.007813.007813zm0 0" fill="url(#b)"/><path d="m141.59375 241.472656c-6.414062 6.195313-6.59375 16.421875-.394531 22.835938 6.195312 6.417968 16.421875 6.59375 22.835937.398437.136719-.128906.265625-.261719.398438-.398437 50.496094-50.371094 132.238281-50.371094 182.734375 0 6.417969 6.199218 16.644531 6.019531 22.839843-.394532 6.042969-6.261718 6.042969-16.183593 0-22.441406-63.113281-62.976562-165.296874-62.976562-228.414062 0zm0 0" fill="url(#c)"/><path d="m255.800781 97.253906c-68.574219-.1875-134.375 27.070313-182.71875 75.703125-6.042969 6.5625-5.617187 16.78125.945313 22.824219 6.179687 5.6875 15.691406 5.6875 21.875 0 88.300781-88.3125 231.472656-88.320312 319.78125-.019531.007812.007812.011718.011719.015625.019531 6.199219 6.414062 16.425781 6.59375 22.839843.394531 6.417969-6.195312 6.59375-16.421875.398438-22.835937-.132812-.136719-.265625-.269532-.398438-.398438-48.355468-48.628906-114.160156-75.882812-182.738281-75.6875zm0 0" fill="url(#d)"/><path d="m507.070312 104.410156c-138.863281-138.546875-363.671874-138.546875-502.535156 0-6.199218 6.417969-6.019531 16.640625.394532 22.839844 6.257812 6.042969 16.183593 6.042969 22.441406 0 126.257812-125.921875 330.601562-125.921875 456.859375 0 6.195312 6.414062 16.421875 6.59375 22.839843.394531 6.414063-6.195312 6.59375-16.421875.394532-22.835937-.128906-.136719-.261719-.265625-.394532-.398438zm0 0" fill="url(#e)"/></svg>